<?xml version="1.0" standalone="no"?>
<!DOCTYPE svg PUBLIC "-//W3C//DTD SVG 1.1//EN" "http://www.w3.org/Graphics/SVG/1.1/DTD/svg11.dtd" >
<svg xmlns="http://www.w3.org/2000/svg">
<metadata></metadata>
<defs>
<font id="sansationitalic" horiz-adv-x="1205" >
<font-face units-per-em="2048" ascent="1638" descent="-410" />
<missing-glyph horiz-adv-x="500" />
<glyph unicode="ffi" horiz-adv-x="1050" d="M0 1050h1050v-1050h-1050v1050z" />
<glyph unicode="ffl" horiz-adv-x="1701" d="M1275 1050l-30 -150h-275l-164 -820q-64 -318 -251 -478l-134 105q152 135 200 373l164 820h-412l-164 -820q-64 -318 -251 -478l-134 105q152 135 200 373l206 1031q76 381 438 381q89 0 166 -40l-30 -150q-71 40 -167 40q-176 0 -219 -213l-15 -79h412l10 51 q80 401 552 401q159 0 308 -72l-286 -1430h-185l267 1339q-72 13 -135 13q-286 0 -335 -243l-11 -59h275z" />
<glyph unicode="ff" horiz-adv-x="1258" d="M1315 1050l-30 -150h-315l-164 -820q-64 -318 -251 -478l-134 105q152 135 200 373l164 820h-412l-164 -820q-64 -318 -251 -478l-134 105q152 135 200 373l206 1031q76 381 438 381q89 0 166 -40l-30 -150q-71 40 -167 40q-176 0 -219 -213l-15 -79h412l12 61 q76 381 488 381q119 0 206 -40l-30 -150q-81 40 -207 40q-226 0 -271 -223l-13 -69h315z" />
<glyph unicode="fj" horiz-adv-x="1091" d="M228 1101q80 401 522 401q139 0 282 -60l-30 -150q-137 60 -283 60q-256 0 -303 -233l-13 -69h586l-194 -970q-64 -318 -251 -478l-134 105q152 135 200 373l164 820h-401l-164 -820q-64 -318 -251 -478l-134 105q152 135 200 373z" />
<glyph unicode="ffj" horiz-adv-x="1698" d="M815 1050l10 51q80 401 522 401q139 0 282 -60l-30 -150q-137 60 -283 60q-256 0 -303 -233l-13 -69h596l-194 -970q-64 -318 -251 -478l-134 105q152 135 200 373l164 820h-411l-164 -820q-64 -318 -251 -478l-134 105q152 135 200 373l164 820h-412l-164 -820 q-64 -318 -251 -478l-134 105q152 135 200 373l206 1031q76 381 438 381q89 0 166 -40l-30 -150q-71 40 -167 40q-176 0 -219 -213l-15 -79h412z" />
<glyph unicode="fb" horiz-adv-x="1757" d="M838 183q45 -29 175 -29q350 0 432 409q66 327 -141 327q-214 0 -375 -254zM403 1050h275l-30 -150h-275l-164 -820q-64 -318 -251 -478l-134 105q152 135 200 373l204 1021q80 401 552 401q159 0 308 -72l-126 -630q169 250 405 250q358 0 261 -484q-113 -566 -636 -566 q-226 0 -367 43l259 1296q-72 13 -135 13q-286 0 -335 -243z" />
<glyph unicode="ffb" horiz-adv-x="2354" d="M1435 183q45 -29 175 -29q350 0 432 409q66 327 -141 327q-214 0 -375 -254zM1275 1050l-30 -150h-275l-164 -820q-64 -318 -251 -478l-134 105q152 135 200 373l164 820h-412l-164 -820q-64 -318 -251 -478l-134 105q152 135 200 373l206 1031q76 381 438 381 q89 0 166 -40l-30 -150q-71 40 -167 40q-176 0 -219 -213l-15 -79h412l10 51q80 401 552 401q159 0 308 -72l-126 -630q169 250 405 250q358 0 261 -484q-113 -566 -636 -566q-226 0 -367 43l259 1296q-72 13 -135 13q-286 0 -335 -243l-11 -59h275z" />
<glyph unicode="fh" horiz-adv-x="1814" d="M403 1050h275l-30 -150h-275l-164 -820q-64 -318 -251 -478l-134 105q152 135 200 373l204 1021q80 401 552 401q159 0 308 -72l-137 -684q195 304 488 304t224 -341l-141 -709h-185l142 712q37 184 -146 184q-209 0 -419 -333l-112 -563h-185l267 1339q-72 13 -135 13 q-286 0 -335 -243z" />
<glyph unicode="ffh" horiz-adv-x="2411" d="M1275 1050l-30 -150h-275l-164 -820q-64 -318 -251 -478l-134 105q152 135 200 373l164 820h-412l-164 -820q-64 -318 -251 -478l-134 105q152 135 200 373l206 1031q76 381 438 381q89 0 166 -40l-30 -150q-71 40 -167 40q-176 0 -219 -213l-15 -79h412l10 51 q80 401 552 401q159 0 308 -72l-137 -684q195 304 488 304t224 -341l-141 -709h-185l142 712q37 184 -146 184q-209 0 -419 -333l-112 -563h-185l267 1339q-72 13 -135 13q-286 0 -335 -243l-11 -59h275z" />
<glyph unicode="fk" horiz-adv-x="1785" d="M403 1050h275l-30 -150h-275l-164 -820q-64 -318 -251 -478l-134 105q152 135 200 373l204 1021q80 401 552 401q159 0 308 -72l-133 -662q210 282 480 282q322 0 263 -293q-44 -220 -380 -358l265 -399h-234l-227 385l18 93q333 81 371 270q31 152 -129 152 q-233 0 -459 -294l-121 -606h-185l267 1339q-72 13 -135 13q-286 0 -335 -243z" />
<glyph unicode="ffk" horiz-adv-x="2382" d="M1275 1050l-30 -150h-275l-164 -820q-64 -318 -251 -478l-134 105q152 135 200 373l164 820h-412l-164 -820q-64 -318 -251 -478l-134 105q152 135 200 373l206 1031q76 381 438 381q89 0 166 -40l-30 -150q-71 40 -167 40q-176 0 -219 -213l-15 -79h412l10 51 q80 401 552 401q159 0 308 -72l-133 -662q210 282 480 282q322 0 263 -293q-44 -220 -380 -358l265 -399h-234l-227 385l18 93q333 81 371 270q31 152 -129 152q-233 0 -459 -294l-121 -606h-185l267 1339q-72 13 -135 13q-286 0 -335 -243l-11 -59h275z" />
<glyph unicode="fi" horiz-adv-x="1091" d="M228 1101q80 401 522 401q139 0 282 -60l-30 -150q-137 60 -283 60q-256 0 -303 -233l-13 -69h586l-210 -1050h-185l180 900h-401l-164 -820q-64 -318 -251 -478l-134 105q152 135 200 373z" />
<glyph unicode="fl" horiz-adv-x="1104" d="M802 0h-185l267 1339q-72 13 -135 13q-286 0 -335 -243l-11 -59h275l-30 -150h-275l-164 -820q-64 -318 -251 -478l-134 105q152 135 200 373l204 1021q80 401 552 401q159 0 308 -72z" />
<glyph unicode="&#xd;" horiz-adv-x="390" />
<glyph unicode=" "  horiz-adv-x="500" />
<glyph unicode="&#x09;" horiz-adv-x="500" />
<glyph unicode="&#xa0;" horiz-adv-x="500" />
<glyph unicode="!" horiz-adv-x="485" d="M479 1430l-212 -1060h-185l212 1060h185zM230 185l-37 -185h-185l37 185h185z" />
<glyph unicode="&#x22;" horiz-adv-x="755" d="M799 1430l-117 -435h-125l57 435h185zM429 1430l-117 -435h-125l57 435h185z" />
<glyph unicode="#" horiz-adv-x="1893" d="M836 876l-165 -378h377l165 378h-377zM260 -5l159 349h-392l61 154h402l164 378h-401l61 154h412l179 395h180l-179 -395h378l182 400h180l-181 -400h392l-61 -154h-402l-164 -378h401l-61 -154h-412l-160 -349h-180l160 349h-378l-160 -349h-180z" />
<glyph unicode="$" horiz-adv-x="1050" d="M575 1238l38 192h175l-39 -194q132 -10 257 -46l-32 -160q-173 60 -361 60q-262 0 -292 -150q-28 -140 137 -140h150q360 0 298 -310q-50 -251 -364 -292l-40 -198h-175l38 191q-165 5 -319 49l32 160q173 -60 362 -60q251 0 281 150q28 140 -147 140h-150 q-340 0 -278 310q55 276 429 298z" />
<glyph unicode="%" horiz-adv-x="1422" d="M163 0h-205l1303 1430h205zM443 1035q144 0 173 147q29 144 -115 144q-148 0 -177 -144q-29 -147 119 -147zM194 1180q52 260 330 260q274 0 222 -260q-52 -259 -326 -259q-278 0 -226 259zM927 104q144 0 173 147q29 144 -115 144q-148 0 -177 -144q-29 -147 119 -147z M678 249q52 260 330 260q274 0 222 -260q-52 -259 -326 -259q-278 0 -226 259z" />
<glyph unicode="&#x26;" horiz-adv-x="1275" d="M167 1045q77 385 587 385q185 0 350 -50l-30 -150q-165 50 -337 50q-338 0 -384 -230q-50 -250 205 -250h388l28 142h63l74 -142h182l-30 -150h-162l-32 -160q-99 -493 -617 -493q-495 0 -416 397q50 247 260 333q-176 85 -129 318zM530 650q-257 0 -308 -251 q-49 -249 252 -249q342 0 410 342l32 158h-386z" />
<glyph unicode="'" horiz-adv-x="385" d="M429 1430l-117 -435h-125l57 435h185z" />
<glyph unicode="(" horiz-adv-x="585" d="M629 1430q-291 -452 -381 -905q-91 -453 19 -905h-185q-110 452 -19 905q90 453 381 905h185z" />
<glyph unicode=")" horiz-adv-x="585" d="M429 1430q110 -452 19 -905t-381 -905h-185q290 452 381 905t-19 905h185z" />
<glyph unicode="*" horiz-adv-x="810" d="M472 1430h156l-76 -232l229 101l18 -147l-236 -43l125 -170l-142 -92l-72 205l-153 -204l-107 89l196 171l-222 42l78 150l190 -103z" />
<glyph unicode="+" horiz-adv-x="950" d="M378 600l60 300h150l-60 -300h300l-30 -150h-300l-60 -300h-150l60 300h-300l30 150h300z" />
<glyph unicode="," horiz-adv-x="385" d="M255 185l-237 -435h-185l237 435h185z" />
<glyph unicode="-" horiz-adv-x="700" d="M578 600l-30 -150h-500l30 150h500z" />
<glyph unicode="." horiz-adv-x="385" d="M180 185l-37 -185h-185l37 185h185z" />
<glyph unicode="/" horiz-adv-x="980" d="M88 0h-205l1011 1430h205z" />
<glyph unicode="0" horiz-adv-x="1445" d="M614 140q412 0 528 579q114 571 -298 571q-423 0 -537 -571q-116 -579 307 -579zM111 713q145 727 763 727q607 0 462 -727q-145 -723 -752 -723q-618 0 -473 723z" />
<glyph unicode="1" horiz-adv-x="645" d="M108 0l250 1251h-150l18 89l355 100l-288 -1440h-185z" />
<glyph unicode="2" horiz-adv-x="1145" d="M-82 0l30 150q904 547 969 870q54 270 -286 270q-220 0 -437 -110l32 160q215 100 435 100q525 0 441 -420q-74 -370 -889 -870h715l-30 -150h-980z" />
<glyph unicode="3" horiz-adv-x="1150" d="M234 1380q212 60 412 60q515 0 437 -390q-47 -236 -253 -325q171 -85 123 -325q-82 -410 -597 -410q-200 0 -388 60l32 160q186 -70 386 -70q330 0 382 260q50 250 -202 250h-328l30 150h325q255 0 305 250q48 240 -282 240q-200 0 -414 -70z" />
<glyph unicode="4" horiz-adv-x="1220" d="M855 0h-185l68 340h-752l30 150l763 940h194l-764 -940h559l102 508h185l-102 -508l133 -76l-15 -74h-148z" />
<glyph unicode="5" horiz-adv-x="1175" d="M299 1430h864l-30 -150h-706l-112 -442q121 22 250 22q540 0 458 -410q-92 -460 -652 -460q-190 0 -378 60l32 160q186 -70 386 -70q365 0 427 310q52 260 -303 260q-225 0 -418 -40z" />
<glyph unicode="6" horiz-adv-x="1260" d="M68 550q111 556 843 923l70 -127q-397 -176 -610 -479q142 53 327 53q514 0 424 -450q-96 -480 -639 -480q-527 0 -415 560zM522 140q353 0 419 330q60 300 -282 300q-214 0 -354 -48q-40 -60 -61 -166q-83 -416 278 -416z" />
<glyph unicode="7" horiz-adv-x="1090" d="M209 1430h950l-30 -150l-858 -1280h-201l878 1280h-769z" />
<glyph unicode="8" horiz-adv-x="1240" d="M43 424q44 223 276 321q-151 105 -105 333q73 366 553 366t407 -366q-46 -228 -244 -333q197 -98 153 -321q-87 -434 -607 -434t-433 434zM985 1058q46 232 -257 232q-287 0 -333 -232q-48 -238 252 -238q290 0 338 238zM897 418q50 252 -293 252q-327 0 -377 -252 q-56 -278 284 -278q330 0 386 278z" />
<glyph unicode="9" horiz-adv-x="1260" d="M1203 873q-111 -556 -843 -923l-70 127q397 176 610 479q-144 -63 -329 -63q-514 0 -422 460q96 480 639 480q527 0 415 -560zM749 1283q-353 0 -419 -330q-60 -300 282 -300q214 0 354 48q40 60 61 166q83 416 -278 416z" />
<glyph unicode=":" horiz-adv-x="435" d="M403 1050l-37 -185h-185l37 185h185zM230 185l-37 -185h-185l37 185h185z" />
<glyph unicode=";" horiz-adv-x="535" d="M503 1050l-37 -185h-185l37 185h185zM330 185l-237 -435h-185l237 435h185z" />
<glyph unicode="&#x3c;" horiz-adv-x="1100" d="M48 450l30 150l980 400l-30 -150l-809 -329l679 -321l-30 -150z" />
<glyph unicode="=" horiz-adv-x="950" d="M798 450l-30 -150h-750l30 150h750zM858 750l-30 -150h-750l30 150h750z" />
<glyph unicode="&#x3e;" horiz-adv-x="1100" d="M-32 50l30 150l807 321l-677 329l30 150l820 -400l-30 -150z" />
<glyph unicode="?" horiz-adv-x="1115" d="M330 185l-37 -185h-185l37 185h185zM234 1380q220 50 410 50q515 0 437 -390t-575 -390h-83l-56 -280h-185l86 430h265q315 0 363 240t-282 240q-190 0 -410 -50z" />
<glyph unicode="@" horiz-adv-x="2150" d="M1347 872q-50 24 -190 24q-335 0 -411 -383q-71 -353 136 -353q214 0 374 254zM1382 118q-24 -118 86 -118q205 0 313 540q150 750 -576 750q-754 0 -904 -750q-154 -770 531 -770l-30 -150q-870 0 -686 920q180 900 1104 900q926 0 746 -900q-138 -690 -535 -690 q-288 0 -235 264l25 126q-171 -240 -402 -240q-358 0 -256 511q108 539 633 539q213 0 363 -43z" />
<glyph unicode="A" horiz-adv-x="1472" d="M85 0h-202l893 1430h205l324 -1430h-195l-95 450h-473l81 150h360l-137 648z" />
<glyph unicode="B" horiz-adv-x="1330" d="M28 0l286 1430h610q408 0 341 -333q-48 -244 -335 -349q273 -53 219 -325q-85 -423 -532 -423h-589zM636 150q256 0 308 260q51 253 -292 253h-80l24 121q421 55 469 296q40 200 -188 200h-408l-226 -1130h393z" />
<glyph unicode="C" horiz-adv-x="1385" d="M1118 50q-197 -60 -412 -60q-750 0 -601 745q141 705 891 705q215 0 388 -60l-32 -160q-171 70 -366 70q-585 0 -696 -555q-119 -595 466 -595q195 0 394 70z" />
<glyph unicode="D" horiz-adv-x="1500" d="M578 150q525 0 646 604q105 526 -420 526h-335l-226 -1130h335zM28 0l286 1430h520q710 0 575 -676q-151 -754 -861 -754h-520z" />
<glyph unicode="E" horiz-adv-x="1230" d="M1249 1430l-30 -150h-750l-96 -480h715l-30 -150h-715l-100 -500h765l-30 -150h-950l286 1430h935z" />
<glyph unicode="F" horiz-adv-x="1155" d="M1249 1430l-30 -150h-750l-96 -480h715l-30 -150h-715l-130 -650h-185l286 1430h935z" />
<glyph unicode="G" horiz-adv-x="1385" d="M1119 56q-186 -66 -386 -66q-777 0 -628 745q141 705 891 705q215 0 388 -60l-32 -160q-171 70 -366 70q-585 0 -696 -555q-119 -595 457 -595q92 0 209 24l97 486h185z" />
<glyph unicode="H" horiz-adv-x="1555" d="M28 0l286 1430h185l-126 -630h845l126 630h185l-286 -1430h-185l130 650h-845l-130 -650h-185z" />
<glyph unicode="I" horiz-adv-x="585" d="M529 1430l-286 -1430h-185l286 1430h185z" />
<glyph unicode="J" horiz-adv-x="690" d="M654 1430l-204 -1018q-82 -412 -567 -412l30 150q300 0 352 262l204 1018h185z" />
<glyph unicode="K" horiz-adv-x="1435" d="M499 1430l-286 -1430h-185l286 1430h185zM1485 1430l-790 -681l568 -749h-247l-503 698l22 112l706 620h244z" />
<glyph unicode="L" horiz-adv-x="1153" d="M499 1430l-256 -1280h748l-30 -150h-933l286 1430h185z" />
<glyph unicode="M" horiz-adv-x="1840" d="M28 0l286 1430h235l286 -1193l754 1193h225l-286 -1430h-165l231 1153l-739 -1153h-146l-285 1153l-231 -1153h-165z" />
<glyph unicode="N" horiz-adv-x="1575" d="M28 0l286 1430h185l641 -1169l234 1169h175l-286 -1430h-185l-638 1189l-237 -1189h-175z" />
<glyph unicode="O" horiz-adv-x="1665" d="M724 140q512 0 628 579q114 571 -398 571q-523 0 -637 -571q-116 -579 407 -579zM121 713q145 727 863 727q707 0 562 -727q-145 -723 -852 -723q-718 0 -573 723z" />
<glyph unicode="P" horiz-adv-x="1263" d="M28 0l286 1430h580q438 0 361 -383q-83 -417 -700 -509l-7 156q453 65 509 345q47 238 -211 238h-378l-255 -1277h-185z" />
<glyph unicode="Q" horiz-adv-x="1665" d="M724 140q512 0 628 579q114 571 -398 571q-523 0 -637 -571q-116 -579 407 -579zM600 -7q-615 42 -479 720q145 727 863 727q707 0 562 -727q-135 -673 -764 -719q26 -231 283 -234q110 0 196 30l-30 -150q-86 -30 -186 -30q-443 0 -445 383z" />
<glyph unicode="R" horiz-adv-x="1305" d="M28 0l286 1430h610q408 0 339 -343q-55 -279 -481 -433l356 -654h-224l-326 643l24 121q403 65 453 315q39 198 -189 198h-408l-255 -1277h-185z" />
<glyph unicode="S" horiz-adv-x="1290" d="M18 50l34 170q209 -80 470 -80q369 0 423 270q46 230 -226 230h-184q-449 0 -371 390q82 410 657 410q250 0 453 -60l-34 -170q-199 80 -449 80q-390 0 -442 -260q-46 -230 218 -230h184q457 0 379 -390q-84 -420 -638 -420q-261 0 -474 60z" />
<glyph unicode="T" horiz-adv-x="1185" d="M1279 1430l-30 -150h-450l-256 -1280h-185l256 1280h-450l30 150h1085z" />
<glyph unicode="U" horiz-adv-x="1510" d="M128 552l176 878h185l-176 -878q-82 -412 328 -412t492 412l176 878h185l-176 -878q-112 -562 -707 -562t-483 562z" />
<glyph unicode="V" horiz-adv-x="1472" d="M1591 1430l-893 -1430h-205l-324 1430h185l276 -1238l759 1238h202z" />
<glyph unicode="W" horiz-adv-x="1900" d="M194 1430h179l-48 -1244l653 1244h185l184 -1244l476 1244h171l-555 -1430h-252l-164 1198l-631 -1198h-249z" />
<glyph unicode="X" horiz-adv-x="1410" d="M589 715l-420 715h215l336 -572l564 572h235l-705 -715l419 -715h-215l-336 572l-564 -572h-235z" />
<glyph unicode="Y" horiz-adv-x="1300" d="M169 1430h198l263 -747l567 747h222l-732 -930l-100 -500h-185l100 500z" />
<glyph unicode="Z" horiz-adv-x="1330" d="M1349 1430l-30 -150l-1083 -1130h837l-30 -150h-1060l30 150l1090 1130h-844l30 150h1060z" />
<glyph unicode="[" horiz-adv-x="650" d="M744 1430l-30 -150h-265l-302 -1510h265l-30 -150h-450l362 1810h450z" />
<glyph unicode="\" horiz-adv-x="970" d="M169 1430h195l439 -1430h-195z" />
<glyph unicode="]" horiz-adv-x="650" d="M644 1430l-362 -1810h-450l30 150h265l302 1510h-265l30 150h450z" />
<glyph unicode="^" horiz-adv-x="1050" d="M594 1430h150l254 -730h-150l-208 603l-442 -603h-150z" />
<glyph unicode="_" horiz-adv-x="1050" d="M883 0l-30 -150h-1000l30 150h1000z" />
<glyph unicode="`" horiz-adv-x="603" d="M599 1191h-164l-191 239h239z" />
<glyph unicode="a" horiz-adv-x="1147" d="M844 872q-50 24 -190 24q-335 0 -411 -383q-71 -353 136 -353q214 0 374 254zM855 0h-165l30 250q-168 -250 -404 -250q-358 0 -256 511q108 539 633 539q213 0 363 -43z" />
<glyph unicode="b" horiz-adv-x="1148" d="M230 183q45 -29 175 -29q350 0 432 409q65 327 -142 327q-214 0 -374 -254zM294 1430h185l-126 -630q169 250 405 250q358 0 262 -484q-114 -566 -637 -566q-226 0 -366 43z" />
<glyph unicode="c" horiz-adv-x="965" d="M764 130q-156 -130 -366 -130q-440 0 -333 535q103 515 603 515q150 0 274 -30l-30 -150q-124 30 -284 30q-305 0 -378 -365q-77 -385 188 -385q200 0 356 130z" />
<glyph unicode="d" horiz-adv-x="1147" d="M844 872q-50 24 -190 24q-335 0 -411 -383q-71 -353 136 -353q214 0 374 254zM855 0h-165l30 250q-168 -250 -404 -250q-358 0 -256 511q108 539 633 539q99 0 185 -9l78 389h185z" />
<glyph unicode="e" horiz-adv-x="1085" d="M1003 751q-58 -289 -433 -289h-335q-62 -312 234 -312q229 0 394 130l-30 -150q-165 -130 -394 -130q-481 0 -374 537q103 513 586 513q412 0 352 -299zM266 616h335q190 0 218 138q29 148 -198 148q-280 0 -355 -286z" />
<glyph unicode="f" horiz-adv-x="691" d="M403 1050h325l-30 -150h-325l-164 -820q-64 -318 -251 -478l-134 105q152 135 200 373l204 1021q76 381 488 381q129 0 236 -40l-30 -150q-101 40 -237 40q-226 0 -271 -223z" />
<glyph unicode="g" horiz-adv-x="1147" d="M844 872q-50 24 -190 24q-335 0 -411 -383q-71 -353 136 -353q214 0 374 254zM855 0q-76 -380 -559 -380q-194 0 -334 50l30 150q143 -50 336 -50q296 0 342 230l50 250q-168 -250 -404 -250q-358 0 -256 511q108 539 633 539q213 0 363 -43z" />
<glyph unicode="h" d="M8 0l286 1430h185l-137 -684q195 304 488 304t225 -341l-142 -709h-185l142 712q37 184 -146 184q-209 0 -418 -333l-113 -563h-185z" />
<glyph unicode="i" horiz-adv-x="525" d="M423 1050l-210 -1050h-185l210 1050h185zM499 1430l-35 -175h-185l35 175h185z" />
<glyph unicode="j" horiz-adv-x="525" d="M423 1050l-194 -970q-64 -318 -251 -478l-134 105q152 135 200 373l194 970h185zM499 1430l-35 -175h-185l35 175h185z" />
<glyph unicode="k" horiz-adv-x="1176" d="M8 0l286 1430h185l-132 -662q209 282 479 282q322 0 263 -293q-44 -220 -381 -358l266 -399h-234l-227 385l19 93q333 81 371 270q30 152 -130 152q-233 0 -459 -294l-121 -606h-185z" />
<glyph unicode="l" horiz-adv-x="505" d="M489 1430l-286 -1430h-185l286 1430h185z" />
<glyph unicode="m" horiz-adv-x="1805" d="M8 0l210 1050h165l-42 -312q184 312 462 312q250 0 189 -304q193 304 469 304q262 0 194 -338l-142 -712h-185l142 712q37 184 -111 184q-198 0 -393 -333l-113 -563h-185l142 712q37 184 -109 184q-206 0 -395 -333l-113 -563h-185z" />
<glyph unicode="n" d="M8 0l210 1050h165l-45 -324q199 324 492 324t225 -341l-142 -709h-185l142 712q37 184 -146 184q-209 0 -418 -333l-113 -563h-185z" />
<glyph unicode="o" horiz-adv-x="1160" d="M468 150q295 0 371 379q74 371 -221 371t-369 -371q-76 -379 219 -379zM63 525q105 525 585 525t375 -525q-105 -524 -585 -524q-478 0 -375 524z" />
<glyph unicode="p" horiz-adv-x="1148" d="M353 800q169 250 405 250q358 0 261 -484q-113 -566 -636 -566q-103 0 -188 9l-78 -389h-185l286 1430h165zM320 636l-90 -453q45 -29 175 -29q350 0 432 409q65 327 -142 327q-214 0 -375 -254z" />
<glyph unicode="q" horiz-adv-x="1147" d="M844 872q-50 24 -190 24q-335 0 -411 -383q-71 -353 136 -353q214 0 374 254zM779 -380h-185l126 630q-168 -250 -404 -250q-358 0 -256 511q108 539 633 539q213 0 363 -43z" />
<glyph unicode="r" horiz-adv-x="710" d="M8 0l210 1050h165l-47 -334q178 334 422 334l-33 -164q-238 0 -419 -323l-113 -563h-185z" />
<glyph unicode="s" horiz-adv-x="1020" d="M-12 50l32 160q173 -60 362 -60q251 0 281 150q28 140 -147 140h-140q-340 0 -278 310q60 300 497 300q188 0 363 -50l-32 -160q-173 60 -361 60q-262 0 -292 -150q-28 -140 137 -140h140q360 0 298 -310q-60 -300 -496 -300q-189 0 -364 50z" />
<glyph unicode="t" horiz-adv-x="675" d="M252 1220h116l6 -170h284l-30 -150h-255l-121 -603q-29 -147 98 -147h128l-30 -150h-176q-264 0 -207 283z" />
<glyph unicode="u" d="M1123 1050l-210 -1050h-165l45 324q-199 -324 -492 -324t-225 341l142 709h185l-142 -712q-37 -184 146 -184q209 0 418 333l113 563h185z" />
<glyph unicode="v" horiz-adv-x="1000" d="M68 1050h200l136 -823l464 823h200l-637 -1050h-172z" />
<glyph unicode="w" horiz-adv-x="1675" d="M288 1050h185q-145 -225 -200 -500q-80 -400 135 -400q225 0 305 400l100 500h185l-100 -500q-80 -400 145 -400q215 0 295 400q55 275 0 500h185q55 -225 0 -500q-110 -550 -510 -550q-235 0 -268 259q-132 -259 -367 -259q-400 0 -290 550q55 275 200 500z" />
<glyph unicode="x" horiz-adv-x="1050" d="M381 535l-288 515h205l219 -411l361 411h215l-497 -535l287 -515h-205l-219 401l-361 -401h-215z" />
<glyph unicode="y" d="M793 324q-199 -324 -492 -324t-225 341l142 709h185l-142 -712q-37 -184 146 -184q209 0 418 333l113 563h185l-210 -1050q-76 -380 -559 -380q-194 0 -334 50l30 150q143 -50 336 -50q296 0 342 230z" />
<glyph unicode="z" horiz-adv-x="1000" d="M188 1050h780l-30 -150l-739 -760h577l-28 -140h-790l28 140l747 760h-575z" />
<glyph unicode="{" horiz-adv-x="675" d="M769 1430q-165 -176 -226 -478q-70 -352 -295 -427q195 -75 125 -427q-61 -302 34 -478h-185q-95 176 -34 478q70 352 -140 352l30 150q210 0 280 352q61 302 226 478h185z" />
<glyph unicode="|" horiz-adv-x="485" d="M479 1430l-362 -1810h-185l362 1810h185z" />
<glyph unicode="}" horiz-adv-x="675" d="M379 1430q95 -176 34 -478q-70 -352 140 -352l-30 -150q-210 0 -280 -352q-61 -302 -226 -478h-185q165 176 226 478q70 352 295 427q-195 75 -125 427q61 302 -34 478h185z" />
<glyph unicode="~" horiz-adv-x="950" d="M74 580q70 61 174 61q86 0 195 -41q109 -40 199 -40q109 0 190 60l-30 -150q-70 -60 -174 -60q-86 0 -195 40q-109 41 -199 41q-109 0 -190 -61z" />
<glyph unicode="&#xa1;" horiz-adv-x="485" d="M-68 -380l212 1060h185l-212 -1060h-185zM181 865l37 185h185l-37 -185h-185z" />
<glyph unicode="&#xa2;" horiz-adv-x="980" d="M598 1232l40 198h175l-39 -194q110 -5 205 -28l-30 -150q-124 30 -284 30q-305 0 -378 -365q-77 -385 188 -385q200 0 356 130l-30 -150q-104 -87 -234 -116l-40 -202h-175l38 190q-389 27 -288 533q92 457 496 509z" />
<glyph unicode="&#xa3;" horiz-adv-x="1217" d="M-18 122q201 75 245 291q23 117 -19 291t-13 323q83 413 641 413q270 0 407 -100l-36 -180q-132 130 -408 130q-354 0 -406 -261q-29 -144 -1 -229h376l-30 -150h-324q22 -134 2 -234q-27 -137 -111 -238q22 4 51 4q91 0 243 -43q57 -17 117 -17q145 0 303 98l-34 -170 q-137 -84 -301 -84q-94 0 -195 28q-123 32 -240 32q-153 0 -297 -56z" />
<glyph unicode="&#xa4;" horiz-adv-x="1139" d="M226 756l-92 120l131 112l101 -121q121 68 255 68q124 0 212 -68l152 121l88 -112l-142 -120q41 -83 11 -231q-27 -139 -114 -232l104 -120l-132 -112l-104 123q-120 -60 -245 -60q-124 0 -231 60l-140 -123l-87 112l140 120q-36 103 -11 232q28 137 104 231zM286 529 q-49 -246 196 -246t294 246q49 244 -196 244t-294 -244z" />
<glyph unicode="&#xa5;" horiz-adv-x="1250" d="M194 1430h198l237 -627l493 627h222l-573 -700h313l-30 -150h-376l-22 -111h376l-30 -150h-376l-64 -319h-185l64 319h-349l30 150h349l22 111h-349l30 150h287z" />
<glyph unicode="&#xa6;" horiz-adv-x="485" d="M263 350l-146 -730h-185l146 730h185zM478 1430l-146 -730h-184l146 730h184z" />
<glyph unicode="&#xa7;" horiz-adv-x="1050" d="M16 40l32 160q163 -60 352 -60q251 0 281 150q26 130 -169 130h-110q-360 0 -300 300q28 138 161 196q-106 80 -77 224q60 300 517 300q168 0 333 -50l-32 -160q-163 60 -331 60q-292 0 -322 -150q-26 -130 169 -130h110q380 0 321 -297q-26 -130 -161 -202 q107 -64 76 -221q-60 -300 -496 -300q-189 0 -354 50zM442 568h110q195 0 222 136q31 157 -164 157h-110q-195 0 -224 -144q-29 -149 166 -149z" />
<glyph unicode="&#xa8;" horiz-adv-x="755" d="M799 1430l-34 -170h-185l34 170h185zM429 1430l-34 -170h-185l34 170h185z" />
<glyph unicode="&#xa9;" horiz-adv-x="1785" d="M752 80q652 0 780 639q126 631 -506 631q-643 0 -769 -631q-128 -639 495 -639zM153 723q143 717 891 717q737 0 594 -717q-147 -733 -884 -733q-748 0 -601 733zM1108 336q-135 -51 -300 -51q-416 0 -327 443q83 416 499 416q165 0 280 -51l-20 -98q-113 58 -264 58 q-325 0 -390 -325q-71 -352 254 -352q151 0 288 58z" />
<glyph unicode="&#xaa;" horiz-adv-x="649" d="M582 1342q-25 12 -95 12q-167 0 -206 -192q-35 -176 69 -176q107 0 186 127zM588 906h-83l15 125q-84 -125 -202 -125q-179 0 -128 255q54 270 317 270q106 0 181 -22z" />
<glyph unicode="&#xab;" horiz-adv-x="1009" d="M462 525l333 375h202l-333 -375l183 -375h-202zM63 525l333 375h202l-333 -375l183 -375h-202z" />
<glyph unicode="&#xac;" horiz-adv-x="1085" d="M168 1050h885l-80 -400h-150l50 250h-735z" />
<glyph unicode="&#xae;" horiz-adv-x="1163" d="M414 756l107 536h229q153 0 127 -128q-21 -105 -181 -155l134 -253h-91l-123 241l9 45q159 25 178 119q14 74 -72 74h-153l-95 -479h-69zM571 664q360 0 432 361q74 369 -286 369q-357 0 -431 -369q-72 -361 285 -361zM213 1023q85 427 515 427q433 0 348 -427 q-83 -415 -516 -415q-418 0 -347 415z" />
<glyph unicode="&#xaf;" horiz-adv-x="700" d="M744 1430l-30 -150h-500l30 150h500z" />
<glyph unicode="&#xb0;" horiz-adv-x="752" d="M441 1025q144 0 173 147q29 144 -115 144q-148 0 -177 -144q-29 -147 119 -147zM192 1170q52 260 330 260q274 0 222 -260q-52 -259 -326 -259q-278 0 -226 259z" />
<glyph unicode="&#xb1;" horiz-adv-x="950" d="M408 750l60 300h150l-60 -300h300l-30 -150h-300l-60 -300h-150l60 300h-300l30 150h300zM738 150l-30 -150h-750l30 150h750z" />
<glyph unicode="&#xb2;" horiz-adv-x="590" d="M50 710l27 135q380 213 410 365q17 85 -93 85t-218 -55l28 140q107 50 217 50q263 0 219 -220q-35 -175 -360 -365h287l-27 -135h-490z" />
<glyph unicode="&#xb3;" horiz-adv-x="578" d="M188 1400q106 30 206 30q278 0 235 -214q-20 -98 -123 -143q86 -43 66 -143q-45 -224 -323 -224q-100 0 -194 30l28 140q93 -36 193 -36q126 0 144 90q15 76 -71 76h-164l27 134h162q88 0 103 76q16 80 -110 80q-100 0 -207 -36z" />
<glyph unicode="&#xb4;" horiz-adv-x="603" d="M408 1430h239l-287 -239h-164z" />
<glyph unicode="&#xb6;" horiz-adv-x="953" d="M215 -434l194 972q-443 0 -353 448q88 444 531 444h510l-18 -90h-150l-354 -1774h-100l354 1774h-160l-354 -1774h-100z" />
<glyph unicode="&#xb7;" horiz-adv-x="450" d="M63 525q25 125 150 125t100 -125t-150 -125t-100 125z" />
<glyph unicode="&#xb8;" horiz-adv-x="457" d="M-194 -264q98 -50 206 -50t121 65q12 64 -71 64h-183l183 260h135l-111 -152q214 0 180 -172q-35 -173 -276 -173q-108 0 -206 50z" />
<glyph unicode="&#xb9;" horiz-adv-x="328" d="M126 710l110 551h-76l15 75l246 90l-143 -716h-152z" />
<glyph unicode="&#xba;" horiz-adv-x="680" d="M394 980q148 0 186 190q37 186 -111 186q-147 0 -184 -186q-38 -190 109 -190zM191 1168q53 262 293 262t187 -262q-52 -262 -292 -262q-238 0 -188 262z" />
<glyph unicode="&#xbb;" horiz-adv-x="1009" d="M140 150h-202l333 375l-183 375h202l183 -375zM539 150h-202l333 375l-183 375h202l183 -375z" />
<glyph unicode="&#xbc;" horiz-adv-x="1449" d="M143 0h-185l1171 1430h185zM198 710l110 551h-74l15 75l245 90l-143 -716h-153zM868 690q106 30 206 30q277 0 234 -214q-19 -98 -122 -143q85 -43 65 -143q-45 -224 -322 -224q-100 0 -194 30l28 140q93 -36 193 -36q124 0 142 90q15 76 -71 76h-164l27 134h163 q87 0 102 76q16 80 -108 80q-100 0 -207 -36z" />
<glyph unicode="&#xbd;" horiz-adv-x="1442" d="M143 0h-185l1171 1430h185zM198 710l110 551h-74l15 75l245 90l-143 -716h-153zM710 0l27 135q381 213 411 365q17 85 -93 85t-219 -55l28 140q108 50 218 50q262 0 218 -220q-35 -175 -361 -365h288l-27 -135h-490z" />
<glyph unicode="&#xbe;" horiz-adv-x="1490" d="M234 0h-185l1171 1430h185zM1174 0h-152l30 150h-342l27 134l304 430h162l-299 -430h175l53 264h152l-53 -264l66 -38l-19 -96h-74zM238 1400q106 30 206 30q277 0 234 -214q-19 -98 -122 -143q85 -43 65 -143q-45 -224 -322 -224q-100 0 -194 30l28 140q93 -36 193 -36 q124 0 142 90q15 76 -71 76h-164l27 134h163q87 0 102 76q16 80 -108 80q-100 0 -207 -36z" />
<glyph unicode="&#xbf;" horiz-adv-x="1115" d="M711 865l37 185h185l-37 -185h-185zM807 -330q-220 -50 -410 -50q-515 0 -437 390t575 390h83l56 280h185l-86 -430h-265q-315 0 -363 -240t282 -240q190 0 410 50z" />
<glyph unicode="&#xc0;" horiz-adv-x="1472" d="M85 0h-202l893 1430h205l324 -1430h-195l-95 450h-473l81 150h360l-137 648zM966 1571h-164l-191 239h239z" />
<glyph unicode="&#xc1;" horiz-adv-x="1472" d="M85 0h-202l893 1430h205l324 -1430h-195l-95 450h-473l81 150h360l-137 648zM1010 1810h239l-287 -239h-164z" />
<glyph unicode="&#xc2;" horiz-adv-x="1472" d="M85 0h-202l893 1430h205l324 -1430h-195l-95 450h-473l81 150h360l-137 648zM855 1810h150l123 -260h-150l-68 160l-132 -160h-150z" />
<glyph unicode="&#xc3;" horiz-adv-x="1472" d="M85 0h-202l893 1430h205l324 -1430h-195l-95 450h-473l81 150h360l-137 648zM661 1764q69 46 139 46q52 0 105 -26t109 -26q75 0 155 46l-30 -150q-69 -46 -139 -46q-52 0 -105 26t-109 26q-75 0 -155 -46z" />
<glyph unicode="&#xc4;" horiz-adv-x="1472" d="M85 0h-202l893 1430h205l324 -1430h-195l-95 450h-473l81 150h360l-137 648zM1218 1810l-34 -170h-185l34 170h185zM848 1810l-34 -170h-185l34 170h185z" />
<glyph unicode="&#xc5;" horiz-adv-x="1472" d="M894 1490q134 0 161 137q27 134 -107 134q-138 0 -165 -134q-27 -137 111 -137zM85 0h-202l893 1430h3q-117 40 -86 195q42 210 270 210q224 0 182 -210q-31 -156 -164 -196l324 -1429h-195l-95 450h-473l81 150h360l-137 648z" />
<glyph unicode="&#xc6;" horiz-adv-x="1925" d="M800 600l28 -150h-459l-284 -450h-202l893 1430h1148l-30 -150h-888l114 -480h643l-30 -150h-574l126 -500h403l-30 -150h-538l-276 1238l-394 -638h350z" />
<glyph unicode="&#xc7;" horiz-adv-x="1385" d="M562 -2q-591 68 -457 737q141 705 891 705q215 0 388 -60l-32 -160q-171 70 -366 70q-585 0 -696 -555q-119 -595 466 -595q195 0 394 70l-32 -160q-197 -60 -412 -60h-16l-50 -67q214 0 180 -172q-35 -173 -276 -173q-108 0 -206 50l22 108q98 -50 206 -50t121 65 q13 64 -70 64h-183z" />
<glyph unicode="&#xc8;" horiz-adv-x="1230" d="M1249 1430l-30 -150h-750l-96 -480h715l-30 -150h-715l-100 -500h765l-30 -150h-950l286 1430h935zM925 1571h-164l-191 239h239z" />
<glyph unicode="&#xc9;" horiz-adv-x="1230" d="M1249 1430l-30 -150h-750l-96 -480h715l-30 -150h-715l-100 -500h765l-30 -150h-950l286 1430h935zM879 1810h239l-287 -239h-164z" />
<glyph unicode="&#xca;" horiz-adv-x="1230" d="M1249 1430l-30 -150h-750l-96 -480h715l-30 -150h-715l-100 -500h765l-30 -150h-950l286 1430h935zM774 1810h150l123 -260h-150l-68 160l-132 -160h-150z" />
<glyph unicode="&#xcb;" horiz-adv-x="1230" d="M1249 1430l-30 -150h-750l-96 -480h715l-30 -150h-715l-100 -500h765l-30 -150h-950l286 1430h935zM1117 1810l-34 -170h-185l34 170h185zM747 1810l-34 -170h-185l34 170h185z" />
<glyph unicode="&#xcc;" horiz-adv-x="585" d="M529 1430l-286 -1430h-185l286 1430h185zM553 1571h-164l-191 239h239z" />
<glyph unicode="&#xcd;" horiz-adv-x="585" d="M529 1430l-286 -1430h-185l286 1430h185zM566 1810h239l-287 -239h-164z" />
<glyph unicode="&#xce;" horiz-adv-x="585" d="M530 1430l-286 -1430h-185l286 1430h185zM442 1810h150l123 -260h-150l-68 160l-132 -160h-150z" />
<glyph unicode="&#xcf;" horiz-adv-x="585" d="M529 1430l-286 -1430h-185l286 1430h185zM794 1810l-34 -170h-185l34 170h185zM424 1810l-34 -170h-185l34 170h185z" />
<glyph unicode="&#xd0;" horiz-adv-x="1500" d="M188 800l126 630h520q710 0 575 -676q-151 -754 -861 -754h-520l130 650h-200l30 150h200zM373 800h365l-30 -150h-365l-100 -500h335q525 0 646 604q105 526 -420 526h-335z" />
<glyph unicode="&#xd1;" horiz-adv-x="1575" d="M28 0l286 1430h185l641 -1169l234 1169h175l-286 -1430h-185l-638 1189l-237 -1189h-175zM733 1764q69 46 139 46q52 0 105 -26t109 -26q75 0 155 46l-30 -150q-69 -46 -139 -46q-52 0 -105 26t-109 26q-75 0 -155 -46z" />
<glyph unicode="&#xd2;" horiz-adv-x="1665" d="M724 140q512 0 628 579q114 571 -398 571q-523 0 -637 -571q-116 -579 407 -579zM121 713q145 727 863 727q707 0 562 -727q-145 -723 -852 -723q-718 0 -573 723zM1143 1571h-164l-191 239h239z" />
<glyph unicode="&#xd3;" horiz-adv-x="1665" d="M724 140q512 0 628 579q114 571 -398 571q-523 0 -637 -571q-116 -579 407 -579zM121 713q145 727 863 727q707 0 562 -727q-145 -723 -852 -723q-718 0 -573 723zM1086 1810h239l-287 -239h-164z" />
<glyph unicode="&#xd4;" horiz-adv-x="1665" d="M724 140q512 0 628 579q114 571 -398 571q-523 0 -637 -571q-116 -579 407 -579zM121 713q145 727 863 727q707 0 562 -727q-145 -723 -852 -723q-718 0 -573 723zM982 1810h150l123 -260h-150l-68 160l-132 -160h-150z" />
<glyph unicode="&#xd5;" horiz-adv-x="1665" d="M724 140q512 0 628 579q114 571 -398 571q-523 0 -637 -571q-116 -579 407 -579zM121 713q145 727 863 727q707 0 562 -727q-145 -723 -852 -723q-718 0 -573 723zM818 1764q69 46 139 46q52 0 105 -26t109 -26q75 0 155 46l-30 -150q-69 -46 -139 -46q-52 0 -105 26 t-109 26q-75 0 -155 -46z" />
<glyph unicode="&#xd6;" horiz-adv-x="1665" d="M724 140q512 0 628 579q114 571 -398 571q-523 0 -637 -571q-116 -579 407 -579zM121 713q145 727 863 727q707 0 562 -727q-145 -723 -852 -723q-718 0 -573 723zM1354 1810l-34 -170h-185l34 170h185zM984 1810l-34 -170h-185l34 170h185z" />
<glyph unicode="&#xd7;" horiz-adv-x="950" d="M275 525l-169 212l127 106l170 -212l254 212l85 -106l-255 -212l170 -212l-127 -106l-170 212l-254 -212l-85 106z" />
<glyph unicode="&#xd8;" horiz-adv-x="1625" d="M1203 1229q-101 61 -269 61q-523 0 -637 -571q-53 -264 27 -408zM421 207q105 -67 283 -67q512 0 628 579q53 266 -30 408zM1444 1275q158 -182 82 -562q-145 -723 -852 -723q-240 0 -383 81l-68 -71h-197l154 161q-154 180 -79 552q145 727 863 727q228 0 368 -76l63 66 h198z" />
<glyph unicode="&#xd9;" horiz-adv-x="1510" d="M128 552l176 878h185l-176 -878q-82 -412 328 -412t492 412l176 878h185l-176 -878q-112 -562 -707 -562t-483 562zM1035 1571h-164l-191 239h239z" />
<glyph unicode="&#xda;" horiz-adv-x="1510" d="M128 552l176 878h185l-176 -878q-82 -412 328 -412t492 412l176 878h185l-176 -878q-112 -562 -707 -562t-483 562zM989 1810h239l-287 -239h-164z" />
<glyph unicode="&#xdb;" horiz-adv-x="1510" d="M128 552l176 878h185l-176 -878q-82 -412 328 -412t492 412l176 878h185l-176 -878q-112 -562 -707 -562t-483 562zM884 1810h150l123 -260h-150l-68 160l-132 -160h-150z" />
<glyph unicode="&#xdc;" horiz-adv-x="1510" d="M128 552l176 878h185l-176 -878q-82 -412 328 -412t492 412l176 878h185l-176 -878q-112 -562 -707 -562t-483 562zM1247 1810l-34 -170h-185l34 170h185zM877 1810l-34 -170h-185l34 170h185z" />
<glyph unicode="&#xdd;" horiz-adv-x="1300" d="M169 1430h198l263 -747l567 747h222l-732 -930l-100 -500h-185l100 500zM864 1810h239l-287 -239h-164z" />
<glyph unicode="&#xde;" horiz-adv-x="1243" d="M8 0l286 1430h185l-62 -308h425q408 0 340 -343q-78 -387 -665 -479l-7 156q423 65 473 315q40 198 -188 198h-408l-194 -969h-185z" />
<glyph unicode="&#xdf;" horiz-adv-x="1191" d="M199 959q94 468 558 468q430 0 355 -377l-17 -85q-325 -103 -352 -238q-18 -91 153 -162.5t133 -262.5q-60 -302 -454 -302h-182l30 150h184q197 0 227 152q20 101 -143 162.5t-124 259.5q42 208 354 326q45 227 -201 227q-272 0 -336 -321l-175 -876q-64 -318 -251 -478 l-134 105q152 135 200 373z" />
<glyph unicode="&#xe0;" horiz-adv-x="1147" d="M844 872q-50 24 -190 24q-335 0 -411 -383q-71 -353 136 -353q214 0 374 254zM855 0h-165l30 250q-168 -250 -404 -250q-358 0 -256 511q108 539 633 539q213 0 363 -43zM829 1191h-164l-191 239h239z" />
<glyph unicode="&#xe1;" horiz-adv-x="1147" d="M844 872q-50 24 -190 24q-335 0 -411 -383q-71 -353 136 -353q214 0 374 254zM855 0h-165l30 250q-168 -250 -404 -250q-358 0 -256 511q108 539 633 539q213 0 363 -43zM772 1430h239l-287 -239h-164z" />
<glyph unicode="&#xe2;" horiz-adv-x="1147" d="M844 872q-50 24 -190 24q-335 0 -411 -383q-71 -353 136 -353q214 0 374 254zM855 0h-165l30 250q-168 -250 -404 -250q-358 0 -256 511q108 539 633 539q213 0 363 -43zM668 1430h150l123 -260h-150l-68 160l-132 -160h-150z" />
<glyph unicode="&#xe3;" horiz-adv-x="1147" d="M844 872q-50 24 -190 24q-335 0 -411 -383q-71 -353 136 -353q214 0 374 254zM855 0h-165l30 250q-168 -250 -404 -250q-358 0 -256 511q108 539 633 539q213 0 363 -43zM484 1384q69 46 139 46q52 0 105 -26t109 -26q75 0 155 46l-30 -150q-69 -46 -139 -46 q-52 0 -105 26t-109 26q-75 0 -155 -46z" />
<glyph unicode="&#xe4;" horiz-adv-x="1147" d="M844 872q-50 24 -190 24q-335 0 -411 -383q-71 -353 136 -353q214 0 374 254zM855 0h-165l30 250q-168 -250 -404 -250q-358 0 -256 511q108 539 633 539q213 0 363 -43zM1020 1430l-34 -170h-185l34 170h185zM650 1430l-34 -170h-185l34 170h185z" />
<glyph unicode="&#xe5;" horiz-adv-x="1147" d="M844 872q-50 24 -190 24q-335 0 -411 -383q-71 -353 136 -353q214 0 374 254zM855 0h-165l30 250q-168 -250 -404 -250q-358 0 -256 511q108 539 633 539q213 0 363 -43zM704 1226q134 0 161 137q27 134 -107 134q-138 0 -165 -134q-27 -137 111 -137zM503 1361 q42 210 270 210q224 0 182 -210q-42 -209 -266 -209q-228 0 -186 209z" />
<glyph unicode="&#xe6;" horiz-adv-x="1775" d="M482 490q-241 0 -275 -170t156 -170q192 0 335 102l44 218q-123 20 -260 20zM956 616h335q190 0 218 138q29 148 -198 148q-280 0 -355 -286zM790 142q-237 -142 -457 -142q-375 0 -312 317q65 323 491 323q137 0 260 -20l20 99q36 181 -237 181q-162 0 -342 -50l30 150 q180 50 342 50q274 0 356 -138q148 138 400 138q412 0 352 -299q-58 -289 -433 -289h-335q-62 -312 234 -312q229 0 394 130l-30 -150q-165 -130 -394 -130q-247 0 -339 142z" />
<glyph unicode="&#xe7;" horiz-adv-x="965" d="M324 4q-356 44 -259 531q103 515 603 515q150 0 274 -30l-30 -150q-124 30 -284 30q-305 0 -378 -365q-77 -385 188 -385q200 0 356 130l-30 -150q-134 -112 -308 -127l-58 -80q214 0 180 -172q-35 -173 -276 -173q-108 0 -206 50l22 108q98 -50 206 -50t121 65 q12 64 -71 64h-183z" />
<glyph unicode="&#xe8;" horiz-adv-x="1085" d="M1003 751q-58 -289 -433 -289h-335q-62 -312 234 -312q229 0 394 130l-30 -150q-165 -130 -394 -130q-481 0 -374 537q103 513 586 513q412 0 352 -299zM266 616h335q190 0 218 138q29 148 -198 148q-280 0 -355 -286zM828 1191h-164l-191 239h239z" />
<glyph unicode="&#xe9;" horiz-adv-x="1085" d="M1003 751q-58 -289 -433 -289h-335q-62 -312 234 -312q229 0 394 130l-30 -150q-165 -130 -394 -130q-481 0 -374 537q103 513 586 513q412 0 352 -299zM266 616h335q190 0 218 138q29 148 -198 148q-280 0 -355 -286zM731 1430h239l-287 -239h-164z" />
<glyph unicode="&#xea;" horiz-adv-x="1085" d="M1003 751q-58 -289 -433 -289h-335q-62 -312 234 -312q229 0 394 130l-30 -150q-165 -130 -394 -130q-481 0 -374 537q103 513 586 513q412 0 352 -299zM266 616h335q190 0 218 138q29 148 -198 148q-280 0 -355 -286zM637 1430h150l123 -260h-150l-68 160l-132 -160 h-150z" />
<glyph unicode="&#xeb;" horiz-adv-x="1085" d="M1003 751q-58 -289 -433 -289h-335q-62 -312 234 -312q229 0 394 130l-30 -150q-165 -130 -394 -130q-481 0 -374 537q103 513 586 513q412 0 352 -299zM266 616h335q190 0 218 138q29 148 -198 148q-280 0 -355 -286zM979 1430l-34 -170h-185l34 170h185zM609 1430 l-34 -170h-185l34 170h185z" />
<glyph unicode="&#xec;" horiz-adv-x="525" d="M423 1050l-210 -1050h-185l210 1050h185zM493 1191h-164l-191 239h239z" />
<glyph unicode="&#xed;" horiz-adv-x="525" d="M423 1050l-210 -1050h-185l210 1050h185zM436 1430h239l-287 -239h-164z" />
<glyph unicode="&#xee;" horiz-adv-x="525" d="M424 1050l-210 -1050h-185l210 1050h185zM332 1430h150l123 -260h-150l-68 160l-132 -160h-150z" />
<glyph unicode="&#xef;" horiz-adv-x="525" d="M423 1050l-210 -1050h-185l210 1050h185zM684 1430l-34 -170h-185l34 170h185zM314 1430l-34 -170h-185l34 170h185z" />
<glyph unicode="&#xf0;" horiz-adv-x="1150" d="M838 576q25 126 31 244q-62 90 -256 90q-292 0 -366 -370q-80 -400 213 -400q291 0 378 436zM952 1251q164 -211 72 -671q-118 -590 -595 -590q-473 0 -363 550q102 510 546 510q157 0 258 -90q-21 141 -103 220l-307 -119l24 119l175 68q-84 32 -199 32h-166l30 150h168 q241 0 379 -100l260 100l-24 -119z" />
<glyph unicode="&#xf1;" d="M8 0l210 1050h165l-45 -324q199 324 492 324t225 -341l-142 -709h-185l142 712q37 184 -146 184q-209 0 -418 -333l-113 -563h-185zM498 1384q69 46 139 46q52 0 105 -26t109 -26q75 0 155 46l-30 -150q-69 -46 -139 -46q-52 0 -105 26t-109 26q-75 0 -155 -46z" />
<glyph unicode="&#xf2;" horiz-adv-x="1160" d="M468 150q295 0 371 379q74 371 -221 371t-369 -371q-76 -379 219 -379zM63 525q105 525 585 525t375 -525q-105 -524 -585 -524q-478 0 -375 524zM810 1191h-164l-191 239h239z" />
<glyph unicode="&#xf3;" horiz-adv-x="1160" d="M468 150q295 0 371 379q74 371 -221 371t-369 -371q-76 -379 219 -379zM63 525q105 525 585 525t375 -525q-105 -524 -585 -524q-478 0 -375 524zM754 1430h239l-287 -239h-164z" />
<glyph unicode="&#xf4;" horiz-adv-x="1160" d="M468 150q295 0 371 379q74 371 -221 371t-369 -371q-76 -379 219 -379zM63 525q105 525 585 525t375 -525q-105 -524 -585 -524q-478 0 -375 524zM649 1430h150l123 -260h-150l-68 160l-132 -160h-150z" />
<glyph unicode="&#xf5;" horiz-adv-x="1160" d="M468 150q295 0 371 379q74 371 -221 371t-369 -371q-76 -379 219 -379zM63 525q105 525 585 525t375 -525q-105 -524 -585 -524q-478 0 -375 524zM465 1384q69 46 139 46q52 0 105 -26t109 -26q75 0 155 46l-30 -150q-69 -46 -139 -46q-52 0 -105 26t-109 26 q-75 0 -155 -46z" />
<glyph unicode="&#xf6;" horiz-adv-x="1160" d="M468 150q295 0 371 379q74 371 -221 371t-369 -371q-76 -379 219 -379zM63 525q105 525 585 525t375 -525q-105 -524 -585 -524q-478 0 -375 524zM1002 1430l-34 -170h-185l34 170h185zM632 1430l-34 -170h-185l34 170h185z" />
<glyph unicode="&#xf7;" horiz-adv-x="985" d="M863 600l-30 -150h-785l30 150h785zM503 300l-30 -150h-185l30 150h185zM623 900l-30 -150h-185l30 150h185z" />
<glyph unicode="&#xf8;" horiz-adv-x="1158" d="M86 154q-75 130 -28 371q105 525 585 525q157 0 251 -56l54 56h198l-153 -158q72 -130 25 -367q-105 -524 -585 -524q-153 0 -246 53l-52 -54h-197zM842 735l-527 -548q56 -37 148 -37q295 0 371 379q24 123 8 206zM236 310l530 551q-57 39 -153 39q-295 0 -369 -371 q-27 -133 -8 -219z" />
<glyph unicode="&#xf9;" d="M1123 1050l-210 -1050h-165l45 324q-199 -324 -492 -324t-225 341l142 709h185l-142 -712q-37 -184 146 -184q209 0 418 333l113 563h185zM833 1191h-164l-191 239h239z" />
<glyph unicode="&#xfa;" d="M1123 1050l-210 -1050h-165l45 324q-199 -324 -492 -324t-225 341l142 709h185l-142 -712q-37 -184 146 -184q209 0 418 333l113 563h185zM776 1430h239l-287 -239h-164z" />
<glyph unicode="&#xfb;" d="M1123 1050l-210 -1050h-165l45 324q-199 -324 -492 -324t-225 341l142 709h185l-142 -712q-37 -184 146 -184q209 0 418 333l113 563h185zM672 1430h150l123 -260h-150l-68 160l-132 -160h-150z" />
<glyph unicode="&#xfc;" d="M1123 1050l-210 -1050h-165l45 324q-199 -324 -492 -324t-225 341l142 709h185l-142 -712q-37 -184 146 -184q209 0 418 333l113 563h185zM1024 1430l-34 -170h-185l34 170h185zM654 1430l-34 -170h-185l34 170h185z" />
<glyph unicode="&#xfd;" d="M793 324q-199 -324 -492 -324t-225 341l142 709h185l-142 -712q-37 -184 146 -184q209 0 418 333l113 563h185l-210 -1050q-76 -380 -559 -380q-194 0 -334 50l30 150q143 -50 336 -50q296 0 342 230zM776 1430h239l-287 -239h-164z" />
<glyph unicode="&#xfe;" horiz-adv-x="1148" d="M353 800q169 250 405 250q358 0 261 -484q-113 -566 -636 -566q-103 0 -188 9l-78 -389h-185l362 1810h185zM320 636l-90 -453q45 -29 175 -29q350 0 432 409q65 327 -142 327q-214 0 -375 -254z" />
<glyph unicode="&#xff;" d="M793 324q-199 -324 -492 -324t-225 341l142 709h185l-142 -712q-37 -184 146 -184q209 0 418 333l113 563h185l-210 -1050q-76 -380 -559 -380q-194 0 -334 50l30 150q143 -50 336 -50q296 0 342 230zM1024 1430l-34 -170h-185l34 170h185zM654 1430l-34 -170h-185 l34 170h185z" />
<glyph unicode="&#x100;" horiz-adv-x="1472" d="M85 0h-202l893 1430h205l324 -1430h-195l-95 450h-473l81 150h360l-137 648zM1190 1810l-30 -150h-500l30 150h500z" />
<glyph unicode="&#x101;" horiz-adv-x="1147" d="M844 872q-50 24 -190 24q-335 0 -411 -383q-71 -353 136 -353q214 0 374 254zM855 0h-165l30 250q-168 -250 -404 -250q-358 0 -256 511q108 539 633 539q213 0 363 -43zM973 1430l-30 -150h-500l30 150h500z" />
<glyph unicode="&#x102;" horiz-adv-x="1472" d="M85 0h-202l893 1430h205l324 -1430h-195l-95 450h-473l81 150h360l-137 648zM675 1810h135q-30 -150 100 -150t160 150h135q-52 -260 -317 -260t-213 260z" />
<glyph unicode="&#x103;" horiz-adv-x="1147" d="M844 872q-50 24 -190 24q-335 0 -411 -383q-71 -353 136 -353q214 0 374 254zM855 0h-165l30 250q-168 -250 -404 -250q-358 0 -256 511q108 539 633 539q213 0 363 -43zM458 1430h135q-30 -150 100 -150t160 150h135q-52 -260 -317 -260t-213 260z" />
<glyph unicode="&#x104;" horiz-adv-x="1472" d="M85 0h-202l893 1430h205l324 -1430q-227 -126 -248 -228q-13 -68 72 -68t141 20l-26 -130q-65 -20 -153 -20q-231 0 -197 173q27 131 216 253l-95 450h-473l81 150h360l-137 648z" />
<glyph unicode="&#x105;" horiz-adv-x="1147" d="M844 872q-50 24 -190 24q-335 0 -411 -383q-71 -353 136 -353q214 0 374 254zM690 0l30 250q-168 -250 -404 -250q-358 0 -256 511q108 539 633 539q213 0 363 -43l-201 -1007q-227 -126 -248 -228q-13 -68 72 -68t141 20l-26 -130q-65 -20 -153 -20q-231 0 -197 173 q27 131 246 253z" />
<glyph unicode="&#x106;" horiz-adv-x="1385" d="M1118 50q-197 -60 -412 -60q-750 0 -601 745q141 705 891 705q215 0 388 -60l-32 -160q-171 70 -366 70q-585 0 -696 -555q-119 -595 466 -595q195 0 394 70zM989 1810h239l-287 -239h-164z" />
<glyph unicode="&#x107;" horiz-adv-x="965" d="M764 130q-156 -130 -366 -130q-440 0 -333 535q103 515 603 515q150 0 274 -30l-30 -150q-124 30 -284 30q-305 0 -378 -365q-77 -385 188 -385q200 0 356 130zM684 1430h239l-287 -239h-164z" />
<glyph unicode="&#x108;" horiz-adv-x="1385" d="M1118 50q-197 -60 -412 -60q-750 0 -601 745q141 705 891 705q215 0 388 -60l-32 -160q-171 70 -366 70q-585 0 -696 -555q-119 -595 466 -595q195 0 394 70zM934 1810h150l123 -260h-150l-68 160l-132 -160h-150z" />
<glyph unicode="&#x109;" horiz-adv-x="965" d="M764 130q-156 -130 -366 -130q-440 0 -333 535q103 515 603 515q150 0 274 -30l-30 -150q-124 30 -284 30q-305 0 -378 -365q-77 -385 188 -385q200 0 356 130zM599 1430h150l123 -260h-150l-68 160l-132 -160h-150z" />
<glyph unicode="&#x10a;" horiz-adv-x="1385" d="M1118 50q-197 -60 -412 -60q-750 0 -601 745q141 705 891 705q215 0 388 -60l-32 -160q-171 70 -366 70q-585 0 -696 -555q-119 -595 466 -595q195 0 394 70zM1142 1810l-38 -190h-205l38 190h205z" />
<glyph unicode="&#x10b;" horiz-adv-x="965" d="M764 130q-156 -130 -366 -130q-440 0 -333 535q103 515 603 515q150 0 274 -30l-30 -150q-124 30 -284 30q-305 0 -378 -365q-77 -385 188 -385q200 0 356 130zM777 1430l-38 -190h-205l38 190h205z" />
<glyph unicode="&#x10c;" horiz-adv-x="1385" d="M1118 50q-197 -60 -412 -60q-750 0 -601 745q141 705 891 705q215 0 388 -60l-32 -160q-171 70 -366 70q-585 0 -696 -555q-119 -595 466 -595q195 0 394 70zM720 1810h150l68 -160l132 160h150l-227 -260h-150z" />
<glyph unicode="&#x10d;" horiz-adv-x="965" d="M764 130q-156 -130 -366 -130q-440 0 -333 535q103 515 603 515q150 0 274 -30l-30 -150q-124 30 -284 30q-305 0 -378 -365q-77 -385 188 -385q200 0 356 130zM404 1430h150l68 -160l132 160h150l-227 -260h-150z" />
<glyph unicode="&#x10e;" horiz-adv-x="1500" d="M578 150q525 0 646 604q105 526 -420 526h-335l-226 -1130h335zM28 0l286 1430h520q710 0 575 -676q-151 -754 -861 -754h-520zM649 1810h150l68 -160l132 160h150l-227 -260h-150z" />
<glyph unicode="&#x10f;" horiz-adv-x="1147" d="M844 872q-50 24 -190 24q-335 0 -411 -383q-71 -353 136 -353q214 0 374 254zM855 0h-165l30 250q-168 -250 -404 -250q-358 0 -256 511q108 539 633 539q99 0 185 -9l78 389h185zM1576 1430l-237 -435h-185l237 435h185z" />
<glyph unicode="&#x110;" horiz-adv-x="1500" d="M168 800l126 630h520q710 0 575 -676q-151 -754 -861 -754h-520l130 650h-200l30 150h200zM353 800h365l-30 -150h-365l-100 -500h335q525 0 646 604q105 526 -420 526h-335z" />
<glyph unicode="&#x111;" horiz-adv-x="1147" d="M844 872q-50 24 -190 24q-335 0 -411 -383q-71 -353 136 -353q214 0 374 254zM928 1290l28 140h185l-286 -1430h-165l30 250q-168 -250 -404 -250q-358 0 -256 511q108 539 633 539q99 0 185 -9l20 99h-692l30 150h692z" />
<glyph unicode="&#x112;" horiz-adv-x="1230" d="M1249 1430l-30 -150h-750l-96 -480h715l-30 -150h-715l-100 -500h765l-30 -150h-950l286 1430h935zM1099 1810l-30 -150h-500l30 150h500z" />
<glyph unicode="&#x113;" horiz-adv-x="1085" d="M1003 751q-58 -289 -433 -289h-335q-62 -312 234 -312q229 0 394 130l-30 -150q-165 -130 -394 -130q-481 0 -374 537q103 513 586 513q412 0 352 -299zM266 616h335q190 0 218 138q29 148 -198 148q-280 0 -355 -286zM952 1430l-30 -150h-500l30 150h500z" />
<glyph unicode="&#x114;" horiz-adv-x="1230" d="M1249 1430l-30 -150h-750l-96 -480h715l-30 -150h-715l-100 -500h765l-30 -150h-950l286 1430h935zM584 1810h135q-30 -150 100 -150t160 150h135q-52 -260 -317 -260t-213 260z" />
<glyph unicode="&#x115;" horiz-adv-x="1085" d="M1003 751q-58 -289 -433 -289h-335q-62 -312 234 -312q229 0 394 130l-30 -150q-165 -130 -394 -130q-481 0 -374 537q103 513 586 513q412 0 352 -299zM266 616h335q190 0 218 138q29 148 -198 148q-280 0 -355 -286zM437 1430h135q-30 -150 100 -150t160 150h135 q-52 -260 -317 -260t-213 260z" />
<glyph unicode="&#x116;" horiz-adv-x="1230" d="M1249 1430l-30 -150h-750l-96 -480h715l-30 -150h-715l-100 -500h765l-30 -150h-950l286 1430h935zM952 1810l-38 -190h-205l38 190h205z" />
<glyph unicode="&#x117;" horiz-adv-x="1085" d="M1003 751q-58 -289 -433 -289h-335q-62 -312 234 -312q229 0 394 130l-30 -150q-165 -130 -394 -130q-481 0 -374 537q103 513 586 513q412 0 352 -299zM266 616h335q190 0 218 138q29 148 -198 148q-280 0 -355 -286zM804 1430l-38 -190h-205l38 190h205z" />
<glyph unicode="&#x118;" horiz-adv-x="1230" d="M783 0h-755l286 1430h935l-30 -150h-750l-96 -480h715l-30 -150h-715l-100 -500h765l-30 -150q-227 -126 -248 -228q-13 -68 72 -68t141 20l-26 -130q-65 -20 -153 -20q-231 0 -197 173q27 131 216 253z" />
<glyph unicode="&#x119;" horiz-adv-x="1085" d="M266 616h335q190 0 218 138q29 148 -198 148q-280 0 -355 -286zM634 27q-91 -27 -195 -27q-481 0 -374 537q103 513 586 513q412 0 352 -299q-58 -289 -433 -289h-335q-62 -312 234 -312q229 0 394 130l-40 -200q-237 -176 -260 -288q-17 -88 68 -88t141 20l-26 -130 q-65 -20 -153 -20q-231 0 -197 173q25 123 207 257z" />
<glyph unicode="&#x11a;" horiz-adv-x="1230" d="M1249 1430l-30 -150h-750l-96 -480h715l-30 -150h-715l-100 -500h765l-30 -150h-950l286 1430h935zM599 1810h150l68 -160l132 160h150l-227 -260h-150z" />
<glyph unicode="&#x11b;" horiz-adv-x="1085" d="M1003 751q-58 -289 -433 -289h-335q-62 -312 234 -312q229 0 394 130l-30 -150q-165 -130 -394 -130q-481 0 -374 537q103 513 586 513q412 0 352 -299zM266 616h335q190 0 218 138q29 148 -198 148q-280 0 -355 -286zM452 1430h150l68 -160l132 160h150l-227 -260h-150z " />
<glyph unicode="&#x11c;" horiz-adv-x="1385" d="M1119 56q-186 -66 -386 -66q-777 0 -628 745q141 705 891 705q215 0 388 -60l-32 -160q-171 70 -366 70q-585 0 -696 -555q-119 -595 457 -595q92 0 209 24l97 486h185zM914 1810h150l123 -260h-150l-68 160l-132 -160h-150z" />
<glyph unicode="&#x11d;" horiz-adv-x="1147" d="M844 872q-50 24 -190 24q-335 0 -411 -383q-71 -353 136 -353q214 0 374 254zM855 0q-76 -380 -559 -380q-194 0 -334 50l30 150q143 -50 336 -50q296 0 342 230l50 250q-168 -250 -404 -250q-358 0 -256 511q108 539 633 539q213 0 363 -43zM648 1430h150l123 -260h-150 l-68 160l-132 -160h-150z" />
<glyph unicode="&#x11e;" horiz-adv-x="1385" d="M1119 56q-186 -66 -386 -66q-777 0 -628 745q141 705 891 705q215 0 388 -60l-32 -160q-171 70 -366 70q-585 0 -696 -555q-119 -595 457 -595q92 0 209 24l97 486h185zM724 1810h135q-30 -150 100 -150t160 150h135q-52 -260 -317 -260t-213 260z" />
<glyph unicode="&#x11f;" horiz-adv-x="1147" d="M844 872q-50 24 -190 24q-335 0 -411 -383q-71 -353 136 -353q214 0 374 254zM855 0q-76 -380 -559 -380q-194 0 -334 50l30 150q143 -50 336 -50q296 0 342 230l50 250q-168 -250 -404 -250q-358 0 -256 511q108 539 633 539q213 0 363 -43zM458 1430h135 q-30 -150 100 -150t160 150h135q-52 -260 -317 -260t-213 260z" />
<glyph unicode="&#x120;" horiz-adv-x="1385" d="M1119 56q-186 -66 -386 -66q-777 0 -628 745q141 705 891 705q215 0 388 -60l-32 -160q-171 70 -366 70q-585 0 -696 -555q-119 -595 457 -595q92 0 209 24l97 486h185zM1142 1810l-38 -190h-205l38 190h205z" />
<glyph unicode="&#x121;" horiz-adv-x="1147" d="M844 872q-50 24 -190 24q-335 0 -411 -383q-71 -353 136 -353q214 0 374 254zM855 0q-76 -380 -559 -380q-194 0 -334 50l30 150q143 -50 336 -50q296 0 342 230l50 250q-168 -250 -404 -250q-358 0 -256 511q108 539 633 539q213 0 363 -43zM825 1430l-38 -190h-205 l38 190h205z" />
<glyph unicode="&#x122;" horiz-adv-x="1385" d="M1119 56q-186 -66 -386 -66q-777 0 -628 745q141 705 891 705q215 0 388 -60l-32 -160q-171 70 -366 70q-585 0 -696 -555q-119 -595 457 -595q92 0 209 24l97 486h185zM681 -100l-206 -280h-185l206 280h185z" />
<glyph unicode="&#x123;" horiz-adv-x="1147" d="M844 872q-50 24 -190 24q-335 0 -411 -383q-71 -353 136 -353q214 0 374 254zM855 0q-76 -380 -559 -380q-194 0 -334 50l30 150q143 -50 336 -50q296 0 342 230l50 250q-168 -250 -404 -250q-358 0 -256 511q108 539 633 539q213 0 363 -43zM951 1430l-206 -280h-185 l206 280h185z" />
<glyph unicode="&#x124;" horiz-adv-x="1555" d="M28 0l286 1430h185l-126 -630h845l126 630h185l-286 -1430h-185l130 650h-845l-130 -650h-185zM906 1810h150l123 -260h-150l-68 160l-132 -160h-150z" />
<glyph unicode="&#x125;" d="M9 0l286 1430h185l-137 -684q195 304 488 304t225 -341l-142 -709h-185l142 712q37 184 -146 184q-209 0 -418 -333l-113 -563h-185zM392 1835h150l123 -260h-150l-68 160l-132 -160h-150z" />
<glyph unicode="&#x126;" horiz-adv-x="1555" d="M1298 1200l46 230h185l-286 -1430h-185l130 650h-845l-130 -650h-185l286 1430h185l-46 -230h845zM423 1050l-50 -250h845l50 250h-845z" />
<glyph unicode="&#x127;" d="M421 1140l-79 -394q195 304 488 304t225 -341l-142 -709h-185l142 712q37 184 -146 184q-209 0 -418 -333l-113 -563h-185l286 1430h185l-28 -140h720l-30 -150h-720z" />
<glyph unicode="&#x128;" horiz-adv-x="585" d="M530 1430l-286 -1430h-185l286 1430h185zM258 1764q69 46 139 46q52 0 105 -26t109 -26q75 0 155 46l-30 -150q-69 -46 -139 -46q-52 0 -105 26t-109 26q-75 0 -155 -46z" />
<glyph unicode="&#x129;" horiz-adv-x="525" d="M424 1050l-210 -1050h-185l210 1050h185zM148 1384q69 46 139 46q52 0 105 -26t109 -26q75 0 155 46l-30 -150q-69 -46 -139 -46q-52 0 -105 26t-109 26q-75 0 -155 -46z" />
<glyph unicode="&#x12a;" horiz-adv-x="585" d="M530 1430l-286 -1430h-185l286 1430h185zM767 1810l-30 -150h-500l30 150h500z" />
<glyph unicode="&#x12b;" horiz-adv-x="525" d="M424 1050l-210 -1050h-185l210 1050h185zM657 1430l-30 -150h-500l30 150h500z" />
<glyph unicode="&#x12c;" horiz-adv-x="585" d="M530 1430l-286 -1430h-185l286 1430h185zM252 1810h135q-30 -150 100 -150t160 150h135q-52 -260 -317 -260t-213 260z" />
<glyph unicode="&#x12d;" horiz-adv-x="525" d="M424 1050l-210 -1050h-185l210 1050h185zM142 1430h135q-30 -150 100 -150t160 150h135q-52 -260 -317 -260t-213 260z" />
<glyph unicode="&#x12e;" horiz-adv-x="585" d="M58 0l286 1430h185l-286 -1430q-217 -126 -237 -228q-14 -68 71 -68t141 20l-26 -130q-65 -20 -153 -20q-231 0 -196 173q26 131 215 253z" />
<glyph unicode="&#x12f;" horiz-adv-x="525" d="M499 1430l-35 -175h-185l35 175h185zM28 0l210 1050h185l-210 -1050q-217 -126 -237 -228q-14 -68 71 -68t141 20l-26 -130q-65 -20 -153 -20q-231 0 -196 173q26 131 215 253z" />
<glyph unicode="&#x130;" horiz-adv-x="585" d="M529 1430l-286 -1430h-185l286 1430h185zM619 1810l-38 -190h-205l38 190h205z" />
<glyph unicode="&#x131;" horiz-adv-x="525" d="M423 1050l-210 -1050h-185l210 1050h185z" />
<glyph unicode="&#x132;" horiz-adv-x="1245" d="M529 1430l-286 -1430h-185l286 1430h185zM1239 1430l-204 -1018q-82 -412 -567 -412l30 150q300 0 352 262l204 1018h185z" />
<glyph unicode="&#x133;" horiz-adv-x="1050" d="M423 1050l-210 -1050h-185l210 1050h185zM499 1430l-35 -175h-185l35 175h185zM948 1050l-194 -970q-64 -318 -251 -478l-134 105q152 135 200 373l194 970h185zM1024 1430l-35 -175h-185l35 175h185z" />
<glyph unicode="&#x134;" horiz-adv-x="690" d="M654 1430l-204 -1018q-82 -412 -567 -412l30 150q300 0 352 262l204 1018h185zM567 1810h150l123 -260h-150l-68 160l-132 -160h-150z" />
<glyph unicode="&#x135;" horiz-adv-x="525" d="M423 1050l-194 -970q-64 -318 -251 -478l-134 105q152 135 200 373l194 970h185zM329 1430h150l123 -260h-150l-68 160l-132 -160h-150z" />
<glyph unicode="&#x136;" horiz-adv-x="1435" d="M499 1430l-286 -1430h-185l286 1430h185zM1485 1430l-790 -681l568 -749h-247l-503 698l22 112l706 620h244zM752 -100l-206 -280h-185l206 280h185z" />
<glyph unicode="&#x137;" horiz-adv-x="1181" d="M8 0l286 1430h185l-132 -662q209 282 479 282q322 0 263 -293q-44 -220 -381 -358l266 -399h-234l-227 385l19 93q333 81 371 270q30 152 -130 152q-233 0 -459 -294l-121 -606h-185zM539 -100l-206 -280h-185l206 280h185z" />
<glyph unicode="&#x138;" horiz-adv-x="1092" d="M1154 1050l-535 -474l341 -576h-247l-283 505l21 103l475 442h228zM8 0l210 1050h185l-210 -1050h-185z" />
<glyph unicode="&#x139;" horiz-adv-x="1153" d="M499 1430l-256 -1280h748l-30 -150h-933l286 1430h185zM560 1810h239l-287 -239h-164z" />
<glyph unicode="&#x13a;" horiz-adv-x="505" d="M489 1430l-286 -1430h-185l286 1430h185zM539 1835h239l-287 -239h-164z" />
<glyph unicode="&#x13b;" horiz-adv-x="1153" d="M499 1430l-256 -1280h748l-30 -150h-933l286 1430h185zM592 -100l-206 -280h-185l206 280h185z" />
<glyph unicode="&#x13c;" horiz-adv-x="505" d="M489 1430l-286 -1430h-185l286 1430h185zM178 -100l-206 -280h-185l206 280h185z" />
<glyph unicode="&#x13d;" horiz-adv-x="1153" d="M499 1430l-256 -1280h748l-30 -150h-933l286 1430h185zM1024 1430l-237 -435h-185l237 435h185z" />
<glyph unicode="&#x13e;" horiz-adv-x="505" d="M489 1430l-286 -1430h-185l286 1430h185zM924 1430l-237 -435h-185l237 435h185z" />
<glyph unicode="&#x13f;" horiz-adv-x="1153" d="M499 1430l-256 -1280h748l-30 -150h-933l286 1430h185zM541 715q25 125 150 125t100 -125t-150 -125t-100 125z" />
<glyph unicode="&#x140;" horiz-adv-x="505" d="M489 1430l-286 -1430h-185l286 1430h185zM448 585q25 125 150 125t100 -125t-150 -125t-100 125z" />
<glyph unicode="&#x141;" horiz-adv-x="1133" d="M150 712l144 718h185l-117 -582l371 238l-36 -180l-371 -238l-103 -518h748l-30 -150h-933l106 532l-172 -110l36 180z" />
<glyph unicode="&#x142;" horiz-adv-x="505" d="M160 713l144 717h185l-116 -579l172 111l-36 -180l-172 -111l-134 -671h-185l106 533l-172 -111l36 180z" />
<glyph unicode="&#x143;" horiz-adv-x="1575" d="M28 0l286 1430h185l641 -1169l234 1169h175l-286 -1430h-185l-638 1189l-237 -1189h-175zM1011 1810h239l-287 -239h-164z" />
<glyph unicode="&#x144;" d="M8 0l210 1050h165l-45 -324q199 324 492 324t225 -341l-142 -709h-185l142 712q37 184 -146 184q-209 0 -418 -333l-113 -563h-185zM776 1430h239l-287 -239h-164z" />
<glyph unicode="&#x145;" horiz-adv-x="1575" d="M28 0l286 1430h185l641 -1169l234 1169h175l-286 -1430h-185l-638 1189l-237 -1189h-175zM743 -100l-206 -280h-185l206 280h185z" />
<glyph unicode="&#x146;" d="M8 0l210 1050h165l-45 -324q199 324 492 324t225 -341l-142 -709h-185l142 712q37 184 -146 184q-209 0 -418 -333l-113 -563h-185zM558 -100l-206 -280h-185l206 280h185z" />
<glyph unicode="&#x147;" horiz-adv-x="1575" d="M28 0l286 1430h185l641 -1169l234 1169h175l-286 -1430h-185l-638 1189l-237 -1189h-175zM742 1810h150l68 -160l132 160h150l-227 -260h-150z" />
<glyph unicode="&#x148;" d="M8 0l210 1050h165l-45 -324q199 324 492 324t225 -341l-142 -709h-185l142 712q37 184 -146 184q-209 0 -418 -333l-113 -563h-185zM497 1430h150l68 -160l132 160h150l-227 -260h-150z" />
<glyph unicode="&#x149;" horiz-adv-x="1305" d="M329 1430l-237 -435h-185l237 435h185zM108 0l210 1050h165l-45 -324q199 324 492 324t225 -341l-142 -709h-185l142 712q37 184 -146 184q-209 0 -418 -333l-113 -563h-185z" />
<glyph unicode="&#x14a;" horiz-adv-x="1575" d="M1078 0l-638 1189l-237 -1189h-175l286 1430h185l640 -1169l235 1169h175l-270 -1350q-64 -318 -251 -478l-134 105q135 112 184 293z" />
<glyph unicode="&#x14b;" d="M870 712q37 184 -146 184q-209 0 -418 -333l-113 -563h-185l210 1050h165l-45 -324q199 324 492 324t225 -341l-126 -629q-64 -318 -251 -478l-134 105q152 135 200 373z" />
<glyph unicode="&#x14c;" horiz-adv-x="1665" d="M724 140q512 0 628 579q114 571 -398 571q-523 0 -637 -571q-116 -579 407 -579zM121 713q145 727 863 727q707 0 562 -727q-145 -723 -852 -723q-718 0 -573 723zM1327 1810l-30 -150h-500l30 150h500z" />
<glyph unicode="&#x14d;" horiz-adv-x="1160" d="M468 150q295 0 371 379q74 371 -221 371t-369 -371q-76 -379 219 -379zM63 525q105 525 585 525t375 -525q-105 -524 -585 -524q-478 0 -375 524zM974 1430l-30 -150h-500l30 150h500z" />
<glyph unicode="&#x14e;" horiz-adv-x="1665" d="M724 140q512 0 628 579q114 571 -398 571q-523 0 -637 -571q-116 -579 407 -579zM121 713q145 727 863 727q707 0 562 -727q-145 -723 -852 -723q-718 0 -573 723zM812 1810h135q-30 -150 100 -150t160 150h135q-52 -260 -317 -260t-213 260z" />
<glyph unicode="&#x14f;" horiz-adv-x="1160" d="M468 150q295 0 371 379q74 371 -221 371t-369 -371q-76 -379 219 -379zM63 525q105 525 585 525t375 -525q-105 -524 -585 -524q-478 0 -375 524zM459 1430h135q-30 -150 100 -150t160 150h135q-52 -260 -317 -260t-213 260z" />
<glyph unicode="&#x150;" horiz-adv-x="1665" d="M724 140q512 0 628 579q114 571 -398 571q-523 0 -637 -571q-116 -579 407 -579zM121 713q145 727 863 727q707 0 562 -727q-145 -723 -852 -723q-718 0 -573 723zM911 1810h239l-287 -239h-164zM1287 1810h239l-287 -239h-164z" />
<glyph unicode="&#x151;" horiz-adv-x="1160" d="M468 150q295 0 371 379q74 371 -221 371t-369 -371q-76 -379 219 -379zM63 525q105 525 585 525t375 -525q-105 -524 -585 -524q-478 0 -375 524zM559 1430h239l-287 -239h-164zM935 1430h239l-287 -239h-164z" />
<glyph unicode="&#x152;" horiz-adv-x="2215" d="M706 150q512 0 626 569q112 561 -400 561q-523 0 -635 -561q-114 -569 409 -569zM101 713q143 717 861 717h1257l-30 -150h-775q165 -148 129 -480h515l-30 -150h-515q-101 -357 -325 -500h790l-30 -150h-1272q-718 0 -575 713z" />
<glyph unicode="&#x153;" horiz-adv-x="1860" d="M468 150q295 0 371 379q74 371 -221 371t-369 -371q-76 -379 219 -379zM1041 616h335q190 0 218 138q29 148 -198 148q-280 0 -355 -286zM858 208q-159 -207 -420 -207q-478 0 -375 524q105 525 585 525q260 0 337 -206q165 206 441 206q412 0 352 -299 q-58 -289 -433 -289h-335q-62 -312 234 -312q229 0 394 130l-30 -150q-165 -130 -394 -130q-299 0 -356 208z" />
<glyph unicode="&#x154;" horiz-adv-x="1305" d="M28 0l286 1430h610q408 0 339 -343q-55 -279 -481 -433l356 -654h-224l-326 643l24 121q403 65 453 315q39 198 -189 198h-408l-255 -1277h-185zM859 1810h239l-287 -239h-164z" />
<glyph unicode="&#x155;" horiz-adv-x="710" d="M8 0l210 1050h165l-47 -334q178 334 422 334l-33 -164q-238 0 -419 -323l-113 -563h-185zM594 1430h239l-287 -239h-164z" />
<glyph unicode="&#x156;" horiz-adv-x="1305" d="M28 0l286 1430h610q408 0 339 -343q-55 -279 -481 -433l356 -654h-224l-326 643l24 121q403 65 453 315q39 198 -189 198h-408l-255 -1277h-185zM641 -100l-206 -280h-185l206 280h185z" />
<glyph unicode="&#x157;" horiz-adv-x="710" d="M9 0l210 1050h165l-47 -334q178 334 422 334l-33 -164q-238 0 -419 -323l-113 -563h-185zM176 -100l-206 -280h-185l206 280h185z" />
<glyph unicode="&#x158;" horiz-adv-x="1305" d="M28 0l286 1430h610q408 0 339 -343q-55 -279 -481 -433l356 -654h-224l-326 643l24 121q403 65 453 315q39 198 -189 198h-408l-255 -1277h-185zM569 1810h150l68 -160l132 160h150l-227 -260h-150z" />
<glyph unicode="&#x159;" horiz-adv-x="710" d="M8 0l210 1050h165l-47 -334q178 334 422 334l-33 -164q-238 0 -419 -323l-113 -563h-185zM314 1430h150l68 -160l132 160h150l-227 -260h-150z" />
<glyph unicode="&#x15a;" horiz-adv-x="1290" d="M18 50l34 170q209 -80 470 -80q369 0 423 270q46 230 -226 230h-184q-449 0 -371 390q82 410 657 410q250 0 453 -60l-34 -170q-199 80 -449 80q-390 0 -442 -260q-46 -230 218 -230h184q457 0 379 -390q-84 -420 -638 -420q-261 0 -474 60zM869 1810h239l-287 -239h-164 z" />
<glyph unicode="&#x15b;" horiz-adv-x="1020" d="M-12 50l32 160q173 -60 362 -60q251 0 281 150q28 140 -147 140h-140q-340 0 -278 310q60 300 497 300q188 0 363 -50l-32 -160q-173 60 -361 60q-262 0 -292 -150q-28 -140 137 -140h140q360 0 298 -310q-60 -300 -496 -300q-189 0 -364 50zM684 1430h239l-287 -239 h-164z" />
<glyph unicode="&#x15c;" horiz-adv-x="1290" d="M18 50l34 170q209 -80 470 -80q369 0 423 270q46 230 -226 230h-184q-449 0 -371 390q82 410 657 410q250 0 453 -60l-34 -170q-199 80 -449 80q-390 0 -442 -260q-46 -230 218 -230h184q457 0 379 -390q-84 -420 -638 -420q-261 0 -474 60zM794 1810h150l123 -260h-150 l-68 160l-132 -160h-150z" />
<glyph unicode="&#x15d;" horiz-adv-x="1020" d="M-12 50l32 160q173 -60 362 -60q251 0 281 150q28 140 -147 140h-140q-340 0 -278 310q60 300 497 300q188 0 363 -50l-32 -160q-173 60 -361 60q-262 0 -292 -150q-28 -140 137 -140h140q360 0 298 -310q-60 -300 -496 -300q-189 0 -364 50zM589 1430h150l123 -260h-150 l-68 160l-132 -160h-150z" />
<glyph unicode="&#x15e;" horiz-adv-x="1290" d="M352 -5q-180 11 -334 55l34 170q209 -80 470 -80q369 0 423 270q46 230 -226 230h-184q-449 0 -371 390q82 410 657 410q250 0 453 -60l-34 -170q-199 80 -449 80q-390 0 -442 -260q-46 -230 218 -230h184q457 0 379 -390q-84 -420 -638 -420h-10l-49 -67q214 0 179 -172 q-34 -173 -275 -173q-108 0 -206 50l21 108q98 -50 206 -50t121 65q13 64 -70 64h-183z" />
<glyph unicode="&#x15f;" horiz-adv-x="1020" d="M292 1q-156 7 -304 49l32 160q173 -60 362 -60q251 0 281 150q28 140 -147 140h-140q-340 0 -278 310q60 300 497 300q188 0 363 -50l-32 -160q-173 60 -361 60q-262 0 -292 -150q-28 -140 137 -140h140q360 0 298 -310q-55 -274 -423 -298l-57 -79q214 0 179 -172 q-34 -173 -275 -173q-108 0 -206 50l21 108q98 -50 206 -50t121 65q13 64 -70 64h-183z" />
<glyph unicode="&#x160;" horiz-adv-x="1290" d="M18 50l34 170q209 -80 470 -80q369 0 423 270q46 230 -226 230h-184q-449 0 -371 390q82 410 657 410q250 0 453 -60l-34 -170q-199 80 -449 80q-390 0 -442 -260q-46 -230 218 -230h184q457 0 379 -390q-84 -420 -638 -420q-261 0 -474 60zM619 1810h150l68 -160 l132 160h150l-227 -260h-150z" />
<glyph unicode="&#x161;" horiz-adv-x="1020" d="M-12 50l32 160q173 -60 362 -60q251 0 281 150q28 140 -147 140h-140q-340 0 -278 310q60 300 497 300q188 0 363 -50l-32 -160q-173 60 -361 60q-262 0 -292 -150q-28 -140 137 -140h140q360 0 298 -310q-60 -300 -496 -300q-189 0 -364 50zM404 1430h150l68 -160 l132 160h150l-227 -260h-150z" />
<glyph unicode="&#x162;" horiz-adv-x="1185" d="M1279 1430l-30 -150h-450l-256 -1280h-185l256 1280h-450l30 150h1085zM516 -100l-206 -280h-185l206 280h185z" />
<glyph unicode="&#x163;" horiz-adv-x="675" d="M252 1220h116l6 -170h284l-30 -150h-255l-121 -603q-29 -147 98 -147h128l-30 -150h-176q-264 0 -207 283zM298 -100l-206 -280h-185l206 280h185z" />
<glyph unicode="&#x164;" horiz-adv-x="1185" d="M1279 1430l-30 -150h-450l-256 -1280h-185l256 1280h-450l30 150h1085zM547 1810h150l68 -160l132 160h150l-227 -260h-150z" />
<glyph unicode="&#x165;" horiz-adv-x="675" d="M252 1220h116l6 -170h284l-30 -150h-255l-121 -603q-29 -147 98 -147h128l-30 -150h-176q-264 0 -207 283zM1119 1430l-237 -435h-185l237 435h185z" />
<glyph unicode="&#x166;" horiz-adv-x="1185" d="M516 790l98 490h-450l30 150h1085l-30 -150h-450l-98 -490h450l-30 -150h-450l-128 -640h-185l128 640h-450l30 150h450z" />
<glyph unicode="&#x167;" horiz-adv-x="675" d="M135 633l117 587h116l6 -170h284l-30 -150h-255l-53 -267h255l-30 -150h-255l-37 -186q-30 -147 97 -147h128l-30 -150h-176q-264 0 -207 283l40 200h-150l30 150h150z" />
<glyph unicode="&#x168;" horiz-adv-x="1510" d="M128 552l176 878h185l-176 -878q-82 -412 328 -412t492 412l176 878h185l-176 -878q-112 -562 -707 -562t-483 562zM700 1764q69 46 139 46q52 0 105 -26t109 -26q75 0 155 46l-30 -150q-69 -46 -139 -46q-52 0 -105 26t-109 26q-75 0 -155 -46z" />
<glyph unicode="&#x169;" d="M1123 1050l-210 -1050h-165l45 324q-199 -324 -492 -324t-225 341l142 709h185l-142 -712q-37 -184 146 -184q209 0 418 333l113 563h185zM488 1384q69 46 139 46q52 0 105 -26t109 -26q75 0 155 46l-30 -150q-69 -46 -139 -46q-52 0 -105 26t-109 26q-75 0 -155 -46z " />
<glyph unicode="&#x16a;" horiz-adv-x="1510" d="M128 552l176 878h185l-176 -878q-82 -412 328 -412t492 412l176 878h185l-176 -878q-112 -562 -707 -562t-483 562zM1209 1810l-30 -150h-500l30 150h500z" />
<glyph unicode="&#x16b;" d="M1123 1050l-210 -1050h-165l45 324q-199 -324 -492 -324t-225 341l142 709h185l-142 -712q-37 -184 146 -184q209 0 418 333l113 563h185zM997 1430l-30 -150h-500l30 150h500z" />
<glyph unicode="&#x16c;" horiz-adv-x="1510" d="M128 552l176 878h185l-176 -878q-82 -412 328 -412t492 412l176 878h185l-176 -878q-112 -562 -707 -562t-483 562zM694 1810h135q-30 -150 100 -150t160 150h135q-52 -260 -317 -260t-213 260z" />
<glyph unicode="&#x16d;" d="M1123 1050l-210 -1050h-165l45 324q-199 -324 -492 -324t-225 341l142 709h185l-142 -712q-37 -184 146 -184q209 0 418 333l113 563h185zM482 1430h135q-30 -150 100 -150t160 150h135q-52 -260 -317 -260t-213 260z" />
<glyph unicode="&#x16e;" horiz-adv-x="1510" d="M128 552l176 878h185l-176 -878q-82 -412 328 -412t492 412l176 878h185l-176 -878q-112 -562 -707 -562t-483 562zM920 1504q134 0 161 137q27 134 -107 134q-138 0 -165 -134q-27 -137 111 -137zM719 1639q42 210 270 210q224 0 182 -210q-42 -209 -266 -209 q-228 0 -186 209z" />
<glyph unicode="&#x16f;" d="M1123 1050l-210 -1050h-165l45 324q-199 -324 -492 -324t-225 341l142 709h185l-142 -712q-37 -184 146 -184q209 0 418 333l113 563h185zM708 1226q134 0 161 137q27 134 -107 134q-138 0 -165 -134q-27 -137 111 -137zM507 1361q42 210 270 210q224 0 182 -210 q-42 -209 -266 -209q-228 0 -186 209z" />
<glyph unicode="&#x170;" horiz-adv-x="1510" d="M128 552l176 878h185l-176 -878q-82 -412 328 -412t492 412l176 878h185l-176 -878q-112 -562 -707 -562t-483 562zM794 1810h239l-287 -239h-164zM1170 1810h239l-287 -239h-164z" />
<glyph unicode="&#x171;" d="M1123 1050l-210 -1050h-165l45 324q-199 -324 -492 -324t-225 341l142 709h185l-142 -712q-37 -184 146 -184q209 0 418 333l113 563h185zM581 1430h239l-287 -239h-164zM957 1430h239l-287 -239h-164z" />
<glyph unicode="&#x172;" horiz-adv-x="1510" d="M561 -9q-540 23 -432 561l175 878h185l-175 -878q-83 -412 327 -412t493 412l175 878h185l-175 -878q-98 -487 -558 -552q-218 -126 -238 -228q-14 -68 71 -68t141 20l-26 -130q-65 -20 -153 -20q-231 0 -196 173q25 126 201 244z" />
<glyph unicode="&#x173;" d="M913 0q-227 -126 -248 -228q-13 -68 72 -68t141 20l-26 -130q-65 -20 -153 -20q-231 0 -197 173q27 131 246 253l45 324q-199 -324 -492 -324t-225 341l142 709h185l-142 -712q-37 -184 146 -184q209 0 418 333l113 563h185z" />
<glyph unicode="&#x174;" horiz-adv-x="1900" d="M194 1430h179l-48 -1244l653 1244h185l184 -1244l476 1244h171l-555 -1430h-252l-164 1198l-631 -1198h-249zM1057 1810h150l123 -260h-150l-68 160l-132 -160h-150z" />
<glyph unicode="&#x175;" horiz-adv-x="1675" d="M288 1050h185q-145 -225 -200 -500q-80 -400 135 -400q225 0 305 400l100 500h185l-100 -500q-80 -400 145 -400q215 0 295 400q55 275 0 500h185q55 -225 0 -500q-110 -550 -510 -550q-235 0 -268 259q-132 -259 -367 -259q-400 0 -290 550q55 275 200 500zM907 1430 h150l123 -260h-150l-68 160l-132 -160h-150z" />
<glyph unicode="&#x176;" horiz-adv-x="1300" d="M169 1430h198l263 -747l567 747h222l-732 -930l-100 -500h-185l100 500zM769 1810h150l123 -260h-150l-68 160l-132 -160h-150z" />
<glyph unicode="&#x177;" d="M793 324q-199 -324 -492 -324t-225 341l142 709h185l-142 -712q-37 -184 146 -184q209 0 418 333l113 563h185l-210 -1050q-76 -380 -559 -380q-194 0 -334 50l30 150q143 -50 336 -50q296 0 342 230zM672 1430h150l123 -260h-150l-68 160l-132 -160h-150z" />
<glyph unicode="&#x178;" horiz-adv-x="1300" d="M169 1430h198l263 -747l567 747h222l-732 -930l-100 -500h-185l100 500zM1122 1810l-34 -170h-185l34 170h185zM752 1810l-34 -170h-185l34 170h185z" />
<glyph unicode="&#x179;" horiz-adv-x="1330" d="M1349 1430l-30 -150l-1083 -1130h837l-30 -150h-1060l30 150l1090 1130h-844l30 150h1060zM899 1810h239l-287 -239h-164z" />
<glyph unicode="&#x17a;" horiz-adv-x="1000" d="M188 1050h780l-30 -150l-739 -760h577l-28 -140h-790l28 140l747 760h-575zM674 1430h239l-287 -239h-164z" />
<glyph unicode="&#x17b;" horiz-adv-x="1330" d="M1349 1430l-30 -150l-1083 -1130h837l-30 -150h-1060l30 150l1090 1130h-844l30 150h1060zM972 1810l-38 -190h-205l38 190h205z" />
<glyph unicode="&#x17c;" horiz-adv-x="1000" d="M188 1050h780l-30 -150l-739 -760h577l-28 -140h-790l28 140l747 760h-575zM747 1430l-38 -190h-205l38 190h205z" />
<glyph unicode="&#x17d;" horiz-adv-x="1330" d="M1349 1430l-30 -150l-1083 -1130h837l-30 -150h-1060l30 150l1090 1130h-844l30 150h1060zM619 1810h150l68 -160l132 160h150l-227 -260h-150z" />
<glyph unicode="&#x17e;" horiz-adv-x="1000" d="M188 1050h780l-30 -150l-739 -760h577l-28 -140h-790l28 140l747 760h-575zM394 1430h150l68 -160l132 160h150l-227 -260h-150z" />
<glyph unicode="&#x17f;" horiz-adv-x="506" d="M228 1101q76 381 488 381q129 0 236 -40l-30 -150q-101 40 -237 40q-226 0 -271 -223l-205 -1029q-64 -318 -251 -478l-134 105q152 135 200 373z" />
<glyph unicode="&#x192;" horiz-adv-x="1047" d="M1111 1280q-30 6 -57 6q-171 0 -257 -216l-48 -120h210l-60 -150h-210l-328 -820q-146 -364 -464 -364q-32 0 -65 4l30 150q30 -6 57 -6q171 0 257 216l328 820h-190l60 150h190l48 120q146 364 464 364q32 0 65 -4z" />
<glyph unicode="&#x218;" horiz-adv-x="1290" d="M18 50l34 170q209 -80 470 -80q369 0 423 270q46 230 -226 230h-184q-449 0 -371 390q82 410 657 410q250 0 453 -60l-34 -170q-199 80 -449 80q-390 0 -442 -260q-46 -230 218 -230h184q457 0 379 -390q-84 -420 -638 -420q-261 0 -474 60zM601 -100l-206 -280h-185 l206 280h185z" />
<glyph unicode="&#x219;" horiz-adv-x="1020" d="M-12 50l32 160q173 -60 362 -60q251 0 281 150q28 140 -147 140h-140q-340 0 -278 310q60 300 497 300q188 0 363 -50l-32 -160q-173 60 -361 60q-262 0 -292 -150q-28 -140 137 -140h140q360 0 298 -310q-60 -300 -496 -300q-189 0 -364 50zM516 -100l-206 -280h-185 l206 280h185z" />
<glyph unicode="&#x2c6;" horiz-adv-x="700" d="M419 1430h150l123 -260h-150l-68 160l-132 -160h-150z" />
<glyph unicode="&#x2c7;" horiz-adv-x="700" d="M244 1430h150l68 -160l132 160h150l-227 -260h-150z" />
<glyph unicode="&#x2d8;" horiz-adv-x="730" d="M244 1430h135q-30 -150 100 -150t160 150h135q-52 -260 -317 -260t-213 260z" />
<glyph unicode="&#x2d9;" horiz-adv-x="405" d="M449 1430l-38 -190h-205l38 190h205z" />
<glyph unicode="&#x2da;" horiz-adv-x="652" d="M431 1226q134 0 161 137q27 134 -107 134q-138 0 -165 -134q-27 -137 111 -137zM230 1361q42 210 270 210q224 0 182 -210q-42 -209 -266 -209q-228 0 -186 209z" />
<glyph unicode="&#x2db;" horiz-adv-x="580" d="M318 0q-227 -126 -247 -228q-14 -68 71 -68t141 20l-26 -130q-65 -20 -153 -20q-231 0 -196 173q26 131 215 253h195z" />
<glyph unicode="&#x2dc;" horiz-adv-x="700" d="M235 1384q69 46 139 46q52 0 105 -26t109 -26q75 0 155 46l-30 -150q-69 -46 -139 -46q-52 0 -105 26t-109 26q-75 0 -155 -46z" />
<glyph unicode="&#x2dd;" horiz-adv-x="979" d="M408 1430h239l-287 -239h-164zM784 1430h239l-287 -239h-164z" />
<glyph unicode="&#x326;" horiz-adv-x="385" d="M198 -100l-206 -280h-185l206 280h185z" />
<glyph unicode="&#x37e;" horiz-adv-x="535" d="M503 1050l-37 -185h-185l37 185h185zM330 185l-237 -435h-185l237 435h185z" />
<glyph unicode="&#x384;" horiz-adv-x="603" d="M408 1430h239l-287 -239h-164z" />
<glyph unicode="&#x385;" horiz-adv-x="1045" d="M1089 1430l-34 -170h-185l34 170h185zM429 1430l-34 -170h-185l34 170h185zM608 1430h239l-287 -239h-164z" />
<glyph unicode="&#x386;" horiz-adv-x="1472" d="M408 1430h239l-287 -239h-164zM85 0h-202l893 1430h205l324 -1430h-195l-95 450h-473l81 150h360l-137 648z" />
<glyph unicode="&#x387;" horiz-adv-x="385" d="M353 1050l-37 -185h-185l37 185h185z" />
<glyph unicode="&#x388;" horiz-adv-x="1483" d="M258 1430h239l-287 -239h-164zM1502 1430l-30 -150h-750l-96 -480h715l-30 -150h-715l-100 -500h765l-30 -150h-950l286 1430h935z" />
<glyph unicode="&#x389;" horiz-adv-x="1808" d="M258 1430h239l-287 -239h-164zM281 0l286 1430h185l-126 -630h845l126 630h185l-286 -1430h-185l130 650h-845l-130 -650h-185z" />
<glyph unicode="&#x38a;" horiz-adv-x="838" d="M258 1430h239l-287 -239h-164zM782 1430l-286 -1430h-185l286 1430h185z" />
<glyph unicode="&#x38c;" horiz-adv-x="1768" d="M258 1430h239l-287 -239h-164zM827 140q512 0 628 579q114 571 -398 571q-523 0 -637 -571q-116 -579 407 -579zM223 713q146 727 864 727q707 0 561 -727q-144 -723 -851 -723q-718 0 -574 723z" />
<glyph unicode="&#x38e;" horiz-adv-x="1653" d="M258 1430h239l-287 -239h-164zM522 1430h205l262 -747l568 747h215l-732 -930l-100 -500h-185l100 500z" />
<glyph unicode="&#x38f;" horiz-adv-x="1713" d="M258 1430h239l-287 -239h-164zM96 0l30 150h305q-266 270 -190 650q130 650 815 650t555 -650q-76 -380 -450 -650h305l-30 -150h-550l30 150q434 270 510 650q100 500 -400 500t-600 -500q-76 -380 250 -650l-30 -150h-550z" />
<glyph unicode="&#x390;" horiz-adv-x="525" d="M423 1050l-210 -1050h-185l210 1050h185zM899 1430l-34 -170h-185l34 170h185zM239 1430l-34 -170h-185l34 170h185zM418 1430h239l-287 -239h-164z" />
<glyph unicode="&#x391;" horiz-adv-x="1472" d="M85 0h-202l893 1430h205l324 -1430h-195l-95 450h-473l81 150h360l-137 648z" />
<glyph unicode="&#x392;" horiz-adv-x="1330" d="M28 0l286 1430h610q408 0 341 -333q-48 -244 -335 -349q273 -53 219 -325q-85 -423 -532 -423h-589zM636 150q256 0 308 260q51 253 -292 253h-80l24 121q421 55 469 296q40 200 -188 200h-408l-226 -1130h393z" />
<glyph unicode="&#x393;" horiz-adv-x="1103" d="M28 0l286 1430h933l-30 -150h-748l-256 -1280h-185z" />
<glyph unicode="&#x394;" horiz-adv-x="1472" d="M-117 0l893 1430h206l323 -1430h-1422zM1079 150l-235 1088l-667 -1088h902z" />
<glyph unicode="&#x395;" horiz-adv-x="1230" d="M1249 1430l-30 -150h-750l-96 -480h715l-30 -150h-715l-100 -500h765l-30 -150h-950l286 1430h935z" />
<glyph unicode="&#x396;" horiz-adv-x="1330" d="M1349 1430l-30 -150l-1083 -1130h837l-30 -150h-1060l30 150l1090 1130h-844l30 150h1060z" />
<glyph unicode="&#x397;" horiz-adv-x="1555" d="M28 0l286 1430h185l-126 -630h845l126 630h185l-286 -1430h-185l130 650h-845l-130 -650h-185z" />
<glyph unicode="&#x398;" horiz-adv-x="1665" d="M724 140q512 0 628 579q114 571 -398 571q-523 0 -637 -571q-116 -579 407 -579zM121 713q145 727 863 727q707 0 562 -727q-145 -723 -852 -723q-718 0 -573 723zM514 813h675l-30 -150h-675z" />
<glyph unicode="&#x399;" horiz-adv-x="585" d="M529 1430l-286 -1430h-185l286 1430h185z" />
<glyph unicode="&#x39a;" horiz-adv-x="1450" d="M499 1430l-286 -1430h-185l286 1430h185zM1485 1430l-790 -681l568 -749h-247l-503 698l22 112l706 620h244z" />
<glyph unicode="&#x39b;" horiz-adv-x="1472" d="M-117 0l893 1430h205l324 -1430h-195l-266 1238l-759 -1238h-202z" />
<glyph unicode="&#x39c;" horiz-adv-x="1840" d="M28 0l286 1430h235l286 -1193l754 1193h225l-286 -1430h-165l231 1153l-739 -1153h-146l-285 1153l-231 -1153h-165z" />
<glyph unicode="&#x39d;" horiz-adv-x="1575" d="M28 0l286 1430h185l641 -1169l234 1169h175l-286 -1430h-185l-638 1189l-237 -1189h-175z" />
<glyph unicode="&#x39e;" horiz-adv-x="1196" d="M-10 160h996l-32 -160h-996zM244 1430h996l-32 -160h-996zM181 813h876l-32 -160h-876z" />
<glyph unicode="&#x39f;" horiz-adv-x="1665" d="M724 140q512 0 628 579q114 571 -398 571q-523 0 -637 -571q-116 -579 407 -579zM121 713q145 727 863 727q707 0 562 -727q-145 -723 -852 -723q-718 0 -573 723z" />
<glyph unicode="&#x3a0;" horiz-adv-x="1525" d="M28 0l286 1430h1185l-286 -1430h-185l256 1280h-815l-256 -1280h-185z" />
<glyph unicode="&#x3a1;" horiz-adv-x="1263" d="M28 0l286 1430h580q438 0 361 -383q-83 -417 -700 -509l-7 156q453 65 509 345q47 238 -211 238h-378l-255 -1277h-185z" />
<glyph unicode="&#x3a3;" horiz-adv-x="1180" d="M244 1430h980l-30 -150h-780l314 -530l-520 -600h760l-30 -150h-980l30 150l535 610l-309 520z" />
<glyph unicode="&#x3a4;" horiz-adv-x="1185" d="M1279 1430l-30 -150h-450l-256 -1280h-185l256 1280h-450l30 150h1085z" />
<glyph unicode="&#x3a5;" horiz-adv-x="1300" d="M169 1430h198l263 -747l567 747h222l-732 -930l-100 -500h-185l100 500z" />
<glyph unicode="&#x3a6;" horiz-adv-x="1724" d="M651 113q-663 37 -550 600q113 567 790 604l23 113h184l-22 -112q663 -34 549 -605q-114 -568 -791 -601l-22 -112h-184zM681 264l180 902q-483 -36 -565 -447q-84 -418 385 -455zM1045 1167l-180 -904q482 34 567 456q83 415 -387 448z" />
<glyph unicode="&#x3a7;" horiz-adv-x="1410" d="M589 715l-420 715h215l336 -572l564 572h235l-705 -715l419 -715h-215l-336 572l-564 -572h-235z" />
<glyph unicode="&#x3a8;" horiz-adv-x="1690" d="M725 573l172 857h184l-172 -857q455 34 531 415l89 442h185l-89 -442q-106 -531 -746 -566l-84 -422h-184l84 422q-626 35 -520 566l89 442h185l-89 -442q-76 -381 365 -415z" />
<glyph unicode="&#x3a9;" horiz-adv-x="1610" d="M-7 0l30 150h305q-266 270 -190 650q130 650 815 650t555 -650q-76 -380 -450 -650h305l-30 -150h-550l30 150q434 270 510 650q100 500 -400 500t-600 -500q-76 -380 250 -650l-30 -150h-550z" />
<glyph unicode="&#x3aa;" horiz-adv-x="585" d="M529 1430l-286 -1430h-185l286 1430h185zM774 1810l-34 -170h-185l34 170h185zM404 1810l-34 -170h-185l34 170h185z" />
<glyph unicode="&#x3ab;" horiz-adv-x="1300" d="M169 1430h198l263 -747l567 747h222l-732 -930l-100 -500h-185l100 500zM1132 1810l-34 -170h-185l34 170h185zM762 1810l-34 -170h-185l34 170h185z" />
<glyph unicode="&#x3ac;" horiz-adv-x="1369" d="M63 525q105 525 555 525q331 0 379 -324l173 324h187l-304 -528l80 -522h-190l-40 330q-192 -330 -495 -330q-448 0 -345 525zM438 150q235 0 431 379q-46 371 -281 371q-265 0 -339 -371q-76 -379 189 -379zM828 1430h239l-287 -239h-164z" />
<glyph unicode="&#x3ad;" horiz-adv-x="925" d="M853 850q-138 60 -308 60q-210 0 -236 -132q-32 -158 213 -158h195l-30 -150h-198q-252 0 -288 -180q-30 -150 190 -150q170 0 332 60l-32 -160q-160 -50 -330 -50q-405 0 -345 300q40 200 269 255q-196 59 -161 233q56 282 461 282q160 0 300 -50zM636 1430h239 l-287 -239h-164z" />
<glyph unicode="&#x3ae;" d="M8 0l210 1050h165l-45 -324q199 324 492 324t225 -341l-219 -1089h-184l218 1092q37 184 -146 184q-209 0 -418 -333l-113 -563h-185zM776 1430h239l-287 -239h-164z" />
<glyph unicode="&#x3af;" horiz-adv-x="525" d="M423 1050l-210 -1050h-185l210 1050h185zM436 1430h239l-287 -239h-164z" />
<glyph unicode="&#x3b0;" horiz-adv-x="1210" d="M94 428l124 622h185l-124 -622q-60 -298 210 -298t330 298l124 622h185l-124 -622q-90 -448 -545 -448t-365 448zM1172 1430l-34 -170h-185l34 170h185zM512 1430l-34 -170h-185l34 170h185zM691 1430h239l-287 -239h-164z" />
<glyph unicode="&#x3b1;" horiz-adv-x="1369" d="M63 525q105 525 555 525q331 0 379 -324l173 324h187l-304 -528l80 -522h-190l-40 330q-192 -330 -495 -330q-448 0 -345 525zM438 150q235 0 431 379q-46 371 -281 371q-265 0 -339 -371q-76 -379 189 -379z" />
<glyph unicode="&#x3b2;" horiz-adv-x="1196" d="M-64 -362l247 1233q111 559 605 559q410 0 343 -336q-52 -262 -316 -325q311 -37 241 -388q-77 -383 -491 -383q-136 0 -230 60l30 150q95 -60 232 -60q227 0 274 233q61 308 -310 309l24 118q329 54 375 286q37 186 -209 186q-302 0 -384 -412l-246 -1230h-185z" />
<glyph unicode="&#x3b3;" horiz-adv-x="1080" d="M103 1050h195l133 -847l477 847h195l-626 -1050l-76 -380h-185l76 380z" />
<glyph unicode="&#x3b4;" horiz-adv-x="1200" d="M449 -10q-493 0 -385 540q102 510 617 510q-140 123 -353 240l30 150h785l-30 -150h-497q522 -315 450 -740q-110 -550 -617 -550zM880 536q73 364 -249 364q-312 0 -386 -370q-78 -390 235 -390q321 0 400 396z" />
<glyph unicode="&#x3b5;" horiz-adv-x="925" d="M853 850q-138 60 -308 60q-210 0 -236 -132q-32 -158 213 -158h195l-30 -150h-198q-252 0 -288 -180q-30 -150 190 -150q170 0 332 60l-32 -160q-160 -50 -330 -50q-405 0 -345 300q40 200 269 255q-196 59 -161 233q56 282 461 282q160 0 300 -50z" />
<glyph unicode="&#x3b6;" horiz-adv-x="1003" d="M447 1430h650l-30 -150q-760 -433 -845 -859q-54 -271 164 -271h181q264 0 219 -223q-41 -206 -384 -327l-42 138q229 69 253 187q15 75 -71 75h-181q-403 0 -320 417q90 449 784 863h-408z" />
<glyph unicode="&#x3b7;" d="M8 0l210 1050h165l-45 -324q199 324 492 324t225 -341l-219 -1089h-184l218 1092q37 184 -146 184q-209 0 -418 -333l-113 -563h-185z" />
<glyph unicode="&#x3b8;" horiz-adv-x="1245" d="M308 670q-93 -530 206 -530q289 0 407 530h-613zM949 820q69 470 -205 470q-284 0 -404 -470h609zM121 713q145 727 653 727q497 0 352 -727q-145 -723 -642 -723q-508 0 -363 723z" />
<glyph unicode="&#x3b9;" horiz-adv-x="525" d="M423 1050l-210 -1050h-185l210 1050h185z" />
<glyph unicode="&#x3ba;" horiz-adv-x="1185" d="M1179 1050l-576 -497l390 -553h-237l-331 508l22 112l498 430h234zM403 1050l-210 -1050h-185l210 1050h185z" />
<glyph unicode="&#x3bb;" horiz-adv-x="1121" d="M527 1036q-51 194 -204 261l100 141q227 -71 286 -357l220 -1081h-206l-147 830l-477 -830h-201z" />
<glyph unicode="&#x3bc;" d="M210 85l-93 -465h-185l286 1430h185l-142 -712q-37 -184 146 -184q209 0 418 333l113 563h185l-210 -1050h-165l45 324q-199 -324 -422 -324q-130 0 -161 85z" />
<glyph unicode="&#x3bd;" horiz-adv-x="1080" d="M108 1050h200l136 -823l464 823h200l-637 -1050h-172z" />
<glyph unicode="&#x3be;" horiz-adv-x="1018" d="M765 1430h244l-30 -150h-243q-222 0 -255 -164q-39 -194 184 -194h232l-30 -150h-222q-328 0 -398 -351q-54 -271 164 -271h181q264 0 219 -223q-41 -206 -384 -327l-42 138q229 69 253 187q15 75 -71 75h-181q-403 0 -320 417q67 332 356 431q-169 54 -125 274 q62 308 468 308z" />
<glyph unicode="&#x3bf;" horiz-adv-x="1200" d="M488 150q315 0 391 379q74 371 -241 371t-389 -371q-76 -379 239 -379zM63 525q105 525 605 525t395 -525q-105 -524 -605 -524q-498 0 -395 524z" />
<glyph unicode="&#x3c0;" horiz-adv-x="1465" d="M81 990q152 60 302 60h1050l-30 -150h-245l-116 -580q-34 -171 141 -171q15 0 30 1l-30 -150q-42 -5 -79 -5q-312 0 -247 325l116 580h-435l-180 -901h-185l180 901q-150 0 -302 -60z" />
<glyph unicode="&#x3c1;" horiz-adv-x="1212" d="M223 224q96 -64 250 -64q347 0 425 390q69 346 -246 346q-295 0 -364 -346zM685 1050q495 0 395 -500q-110 -550 -638 -550q-146 0 -252 60l-88 -440h-185l186 930q100 500 582 500z" />
<glyph unicode="&#x3c2;" horiz-adv-x="993" d="M942 850q-102 50 -235 50q-389 0 -461 -359q-47 -233 147 -297l148 -45q285 -74 239 -304q-55 -275 -495 -275l30 150q257 0 281 121q19 96 -113 140l-187 61q-304 79 -231 445q103 513 672 513q133 0 235 -50z" />
<glyph unicode="&#x3c3;" horiz-adv-x="1277" d="M488 150q315 0 391 379q74 371 -231 371q-325 0 -399 -371q-76 -379 239 -379zM63 525q105 525 615 525h617l-30 -150h-261q108 -129 59 -375q-105 -524 -605 -524q-498 0 -395 524z" />
<glyph unicode="&#x3c4;" horiz-adv-x="849" d="M68 1050h774l-30 -150h-315l-106 -530q-44 -221 172 -221q14 0 29 1l-30 -150q-42 -4 -78 -4q-353 0 -278 374l106 530h-274z" />
<glyph unicode="&#x3c5;" horiz-adv-x="1210" d="M94 428l124 622h185l-124 -622q-60 -298 210 -298t330 298l124 622h185l-124 -622q-90 -448 -545 -448t-365 448z" />
<glyph unicode="&#x3c6;" horiz-adv-x="1505" d="M348 1050h205q-245 -225 -300 -500q-80 -400 281 -420l105 525q79 395 443 395q391 0 291 -500q-110 -550 -684 -570l-72 -360h-185l72 360q-546 20 -436 570q55 275 280 500zM1188 550q70 350 -133 350q-182 0 -231 -245l-105 -525q389 20 469 420z" />
<glyph unicode="&#x3c7;" horiz-adv-x="1130" d="M388 335l-280 715h205l212 -542l428 542h205l-565 -715l279 -715h-205l-212 542l-428 -542h-205z" />
<glyph unicode="&#x3c8;" horiz-adv-x="1610" d="M599 144l181 906h186l-181 -906q384 38 456 394l102 512h185l-102 -512q-102 -508 -671 -545l-75 -373h-186l75 373q-555 37 -453 545l102 512h185l-102 -512q-72 -356 298 -394z" />
<glyph unicode="&#x3c9;" horiz-adv-x="1675" d="M318 1050h185q-175 -225 -230 -500q-80 -400 135 -400q225 0 360 675h185q-135 -675 90 -675q215 0 295 400q55 275 -30 500h185q85 -225 30 -500q-110 -550 -510 -550q-235 0 -256 319q-144 -319 -379 -319q-400 0 -290 550q55 275 230 500z" />
<glyph unicode="&#x3ca;" horiz-adv-x="525" d="M423 1050l-210 -1050h-185l210 1050h185zM684 1430l-34 -170h-185l34 170h185zM314 1430l-34 -170h-185l34 170h185z" />
<glyph unicode="&#x3cb;" horiz-adv-x="1210" d="M94 428l124 622h185l-124 -622q-60 -298 210 -298t330 298l124 622h185l-124 -622q-90 -448 -545 -448t-365 448zM1027 1430l-34 -170h-185l34 170h185zM657 1430l-34 -170h-185l34 170h185z" />
<glyph unicode="&#x3cc;" horiz-adv-x="1200" d="M488 150q315 0 391 379q74 371 -241 371t-389 -371q-76 -379 239 -379zM63 525q105 525 605 525t395 -525q-105 -524 -605 -524q-498 0 -395 524zM774 1430h239l-287 -239h-164z" />
<glyph unicode="&#x3cd;" horiz-adv-x="1210" d="M94 428l124 622h185l-124 -622q-60 -298 210 -298t330 298l124 622h185l-124 -622q-90 -448 -545 -448t-365 448zM779 1430h239l-287 -239h-164z" />
<glyph unicode="&#x3ce;" horiz-adv-x="1675" d="M318 1050h185q-175 -225 -230 -500q-80 -400 135 -400q225 0 360 675h185q-135 -675 90 -675q215 0 295 400q55 275 -30 500h185q85 -225 30 -500q-110 -550 -510 -550q-235 0 -256 319q-144 -319 -379 -319q-400 0 -290 550q55 275 230 500zM1011 1430h239l-287 -239 h-164z" />
<glyph unicode="&#x401;" horiz-adv-x="1230" d="M1249 1430l-30 -150h-750l-96 -480h715l-30 -150h-715l-100 -500h765l-30 -150h-950l286 1430h935zM1127 1810l-34 -170h-185l34 170h185zM757 1810l-34 -170h-185l34 170h185z" />
<glyph unicode="&#x410;" horiz-adv-x="1472" d="M85 0h-202l893 1430h205l324 -1430h-195l-95 450h-473l81 150h360l-137 648z" />
<glyph unicode="&#x411;" horiz-adv-x="1311" d="M1315 1430l-30 -150h-815l-225 -1127h407q238 0 287 249q54 268 -238 268h-188l30 150h197q468 0 387 -407q-83 -413 -489 -413h-610l286 1430h1001z" />
<glyph unicode="&#x412;" horiz-adv-x="1330" d="M28 0l286 1430h610q408 0 341 -333q-48 -244 -335 -349q273 -53 219 -325q-85 -423 -532 -423h-589zM636 150q256 0 308 260q51 253 -292 253h-80l24 121q421 55 469 296q40 200 -188 200h-408l-226 -1130h393z" />
<glyph unicode="&#x413;" horiz-adv-x="1103" d="M28 0l286 1430h933l-30 -150h-748l-256 -1280h-185z" />
<glyph unicode="&#x414;" horiz-adv-x="1699" d="M386 150h756l226 1130h-470q-188 -939 -512 -1130zM-218 -380l106 530h184q415 0 641 1130l30 150h840l-256 -1280h185l-106 -530h-185l76 380h-1255l-76 -380h-184z" />
<glyph unicode="&#x415;" horiz-adv-x="1230" d="M1249 1430l-30 -150h-750l-96 -480h715l-30 -150h-715l-100 -500h765l-30 -150h-950l286 1430h935z" />
<glyph unicode="&#x416;" horiz-adv-x="2109" d="M1738 0q-231 540 -303.5 616.5t-170.5 76.5l26 133q160 0 384 302t412 302h107l-32 -160h-79q-108 0 -289.5 -236.5t-303.5 -275.5q72 -13 142 -112.5t311 -645.5h-204zM1291 1430l-286 -1430h-185l286 1430h185zM-117 0q459 546 569 645.5t188 112.5 q-98 39 -184.5 275.5t-204.5 236.5h-79l32 160h107q188 0 291 -302t263 -302l-26 -133q-78 0 -181.5 -76.5t-550.5 -616.5h-224z" />
<glyph unicode="&#x417;" horiz-adv-x="1115" d="M234 1380q212 60 412 60q515 0 437 -390q-47 -236 -253 -325q171 -85 123 -325q-82 -410 -597 -410q-200 0 -388 60l32 160q186 -70 386 -70q330 0 382 260q50 250 -202 250h-328l30 150h325q255 0 305 250q48 240 -282 240q-200 0 -414 -70z" />
<glyph unicode="&#x418;" horiz-adv-x="1525" d="M1038 0l236 1182l-1061 -1182h-185l286 1430h175l-236 -1182l1061 1182h185l-286 -1430h-175z" />
<glyph unicode="&#x419;" horiz-adv-x="1525" d="M1038 0l236 1182l-1061 -1182h-185l286 1430h175l-236 -1182l1061 1182h185l-286 -1430h-175zM705 1784h135q-32 -160 108 -160t172 160h135q-54 -270 -329 -270t-221 270z" />
<glyph unicode="&#x41a;" horiz-adv-x="1317" d="M926 0q-231 540 -303.5 616.5t-150.5 76.5l26 133q160 0 384 302t412 302h107l-32 -160h-79q-108 0 -289.5 -236.5t-303.5 -275.5q72 -13 142 -112.5t311 -645.5h-224zM499 1430l-286 -1430h-185l286 1430h185z" />
<glyph unicode="&#x41b;" horiz-adv-x="1524" d="M-112 150q414 0 544 650l126 630h940l-286 -1430h-185l256 1280h-570l-96 -480q-160 -800 -759 -800z" />
<glyph unicode="&#x41c;" horiz-adv-x="1840" d="M28 0l286 1430h235l286 -1193l754 1193h225l-286 -1430h-165l231 1153l-739 -1153h-146l-285 1153l-231 -1153h-165z" />
<glyph unicode="&#x41d;" horiz-adv-x="1525" d="M28 0l286 1430h185l-124 -620h815l124 620h185l-286 -1430h-185l132 660h-815l-132 -660h-185z" />
<glyph unicode="&#x41e;" horiz-adv-x="1665" d="M724 140q512 0 628 579q114 571 -398 571q-523 0 -637 -571q-116 -579 407 -579zM121 713q145 727 863 727q707 0 562 -727q-145 -723 -852 -723q-718 0 -573 723z" />
<glyph unicode="&#x41f;" horiz-adv-x="1525" d="M28 0l286 1430h1185l-286 -1430h-185l256 1280h-815l-256 -1280h-185z" />
<glyph unicode="&#x420;" horiz-adv-x="1263" d="M28 0l286 1430h580q438 0 361 -383q-83 -417 -700 -509l-7 156q453 65 509 345q47 238 -211 238h-378l-255 -1277h-185z" />
<glyph unicode="&#x421;" horiz-adv-x="1385" d="M1118 50q-197 -60 -412 -60q-750 0 -601 745q141 705 891 705q215 0 388 -60l-32 -160q-171 70 -366 70q-585 0 -696 -555q-119 -595 466 -595q195 0 394 70z" />
<glyph unicode="&#x422;" horiz-adv-x="1185" d="M1279 1430l-30 -150h-450l-256 -1280h-185l256 1280h-450l30 150h1085z" />
<glyph unicode="&#x423;" horiz-adv-x="1307" d="M1426 1430l-725 -1162q-168 -268 -443 -268q-128 0 -222 70l30 150q92 -70 209 -70q154 0 241 121l-322 1159h185l267 -981l578 981h202z" />
<glyph unicode="&#x424;" horiz-adv-x="1724" d="M651 113q-663 37 -550 600q113 567 790 604l23 113h184l-22 -112q663 -34 549 -605q-114 -568 -791 -601l-22 -112h-184zM681 264l180 902q-483 -36 -565 -447q-84 -418 385 -455zM1045 1167l-180 -904q482 34 567 456q83 415 -387 448z" />
<glyph unicode="&#x425;" horiz-adv-x="1410" d="M589 715l-420 715h215l336 -572l564 572h235l-705 -715l419 -715h-215l-336 572l-564 -572h-235z" />
<glyph unicode="&#x426;" horiz-adv-x="1567" d="M28 0l286 1430h185l-256 -1280h742l256 1280h185l-256 -1280h185l-106 -530h-185l76 380h-1112z" />
<glyph unicode="&#x427;" horiz-adv-x="1408" d="M1382 1430l-286 -1430h-185l127 634q-219 -114 -452 -114q-499 0 -403 481l86 429h185l-86 -432q-65 -324 274 -324q229 0 430 133l125 623h185z" />
<glyph unicode="&#x428;" horiz-adv-x="1875" d="M28 0l286 1430h185l-256 -1280h490l256 1280h185l-256 -1280h490l256 1280h185l-286 -1430h-1535z" />
<glyph unicode="&#x429;" horiz-adv-x="1990" d="M28 0l286 1430h185l-256 -1280h490l256 1280h185l-256 -1280h490l256 1280h185l-256 -1280h185l-106 -530h-185l76 380h-1535z" />
<glyph unicode="&#x42a;" horiz-adv-x="1710" d="M1055 1430l-510 -1277h408q238 0 336 249q108 268 -184 268h-188l60 150h198q479 0 317 -407q-166 -413 -584 -413h-610l512 1280h-582l60 150h767z" />
<glyph unicode="&#x42b;" horiz-adv-x="1755" d="M499 1430l-255 -1277h408q238 0 287 249q54 268 -238 268h-188l30 150h198q479 0 398 -407q-83 -413 -501 -413h-610l286 1430h185zM1258 0l286 1430h185l-286 -1430h-185z" />
<glyph unicode="&#x42c;" horiz-adv-x="1298" d="M499 1430l-255 -1277h408q238 0 287 249q54 268 -238 268h-188l30 150h197q480 0 399 -407q-83 -413 -501 -413h-610l286 1430h185z" />
<glyph unicode="&#x42d;" horiz-adv-x="1375" d="M25 210q171 -70 366 -70q542 0 684 510h-890l30 150h891q65 490 -485 490q-195 0 -394 -70l32 160q197 60 412 60q750 0 609 -705q-149 -745 -899 -745q-215 0 -388 60z" />
<glyph unicode="&#x42e;" horiz-adv-x="2022" d="M28 0l286 1430h184l-126 -630h405q162 640 714 640q577 0 432 -727q-145 -723 -722 -723q-562 0 -455 660h-404l-130 -650h-184zM1231 140q382 0 498 579q114 571 -268 571q-393 0 -507 -571q-116 -579 277 -579z" />
<glyph unicode="&#x42f;" horiz-adv-x="1305" d="M808 0l255 1277h-408q-228 0 -267 -198q-50 -250 347 -315l-26 -131l-592 -633h-234l626 649q-376 139 -321 418q73 363 501 363h590l-286 -1430h-185z" />
<glyph unicode="&#x430;" horiz-adv-x="1147" d="M844 872q-50 24 -190 24q-335 0 -411 -383q-71 -353 136 -353q214 0 374 254zM855 0h-165l30 250q-168 -250 -404 -250q-358 0 -256 511q108 539 633 539q213 0 363 -43z" />
<glyph unicode="&#x431;" horiz-adv-x="1207" d="M1058 520q-106 -530 -584 -530q-493 0 -387 530l65 325q117 585 681 585q202 0 395 109l-33 -163q-172 -96 -395 -96q-371 0 -456 -425q168 195 352 195q468 0 367 -506zM504 140q292 0 368 380q75 374 -207 374q-313 0 -388 -374q-76 -380 227 -380z" />
<glyph unicode="&#x432;" horiz-adv-x="1146" d="M514 140q216 0 250 170q30 150 -213 150h-80l24 121q317 35 352 209q24 120 -164 120q-358 0 -435 -385t266 -385zM63 525q107 535 647 535q388 0 333 -273q-30 -153 -272 -232q233 -53 196 -242q-65 -323 -492 -323q-519 0 -412 535z" />
<glyph unicode="&#x433;" horiz-adv-x="990" d="M374 0q-416 0 -356 300q62 310 422 310h90q165 0 193 140q30 150 -212 150q-138 0 -335 -60l32 160q195 50 333 50q417 0 357 -300q-62 -310 -402 -310h-90q-175 0 -203 -140q-30 -150 201 -150q139 0 336 60l-32 -160q-195 -50 -334 -50z" />
<glyph unicode="&#x434;" horiz-adv-x="1150" d="M838 576q25 126 31 244q-62 90 -256 90q-292 0 -366 -370q-80 -400 213 -400q291 0 378 436zM1024 580q-118 -590 -595 -590q-473 0 -363 550q102 510 546 510q157 0 258 -90q-28 320 -410 320h-166l30 150h168q702 0 532 -850z" />
<glyph unicode="&#x435;" horiz-adv-x="1085" d="M1003 751q-58 -289 -433 -289h-335q-62 -312 234 -312q229 0 394 130l-30 -150q-165 -130 -394 -130q-481 0 -374 537q103 513 586 513q412 0 352 -299zM266 616h335q190 0 218 138q29 148 -198 148q-280 0 -355 -286z" />
<glyph unicode="&#x436;" horiz-adv-x="2076" d="M1426 694q128 356 438 356q80 0 164 -30l-30 -150q-84 30 -174 30q-195 0 -272 -385q-73 -365 112 -365q100 0 206 80l-30 -150q-106 -80 -216 -80q-350 0 -247 515l5 26l-301 -62l-96 -479h-185l88 440l-305 -63q-126 -377 -445 -377q-80 0 -164 30l30 150 q84 -30 174 -30q195 0 272 385q73 365 -112 365q-100 0 -206 -80l30 150q106 80 216 80q350 0 247 -515l-1 -6l294 61l92 460h185l-84 -421z" />
<glyph unicode="&#x437;" horiz-adv-x="945" d="M158 1000q192 60 342 60q415 0 357 -292q-31 -154 -185 -233q123 -75 93 -225q-64 -320 -479 -320q-150 0 -318 60l32 160q166 -70 316 -70q230 0 264 170q30 150 -122 150h-308l30 150h305q155 0 187 158q28 142 -202 142q-150 0 -344 -70z" />
<glyph unicode="&#x438;" d="M1123 1050l-210 -1050h-165l45 324q-199 -324 -492 -324t-225 341l142 709h185l-142 -712q-37 -184 146 -184q209 0 418 333l113 563h185z" />
<glyph unicode="&#x439;" d="M1123 1050l-210 -1050h-165l45 324q-199 -324 -492 -324t-225 341l142 709h185l-142 -712q-37 -184 146 -184q209 0 418 333l113 563h185zM482 1430h135q-30 -150 100 -150t160 150h135q-52 -260 -317 -260t-213 260z" />
<glyph unicode="&#x43a;" horiz-adv-x="1104" d="M733 0l-98 246q-98 247 -246 247l24 123q160 0 282 217t310 217h107l-32 -160h-79q-108 0 -188.5 -146.5t-214.5 -195.5q113 -21 226 -284l113 -264h-204zM403 1050l-210 -1050h-185l210 1050h185z" />
<glyph unicode="&#x43b;" horiz-adv-x="1187" d="M-112 150q237 0 291 270l49 245q77 385 477 385h400l-210 -1050h-185l180 900h-215q-215 0 -261 -230l-50 -250q-84 -420 -506 -420z" />
<glyph unicode="&#x43c;" horiz-adv-x="1460" d="M8 0l210 1050h235l188 -833l512 833h225l-210 -1050h-165l161 803l-499 -803h-146l-185 803l-161 -803h-165z" />
<glyph unicode="&#x43d;" horiz-adv-x="1185" d="M8 0l210 1050h185l-88 -440h515l88 440h185l-210 -1050h-185l92 460h-515l-92 -460h-185z" />
<glyph unicode="&#x43e;" horiz-adv-x="1160" d="M468 150q295 0 371 379q74 371 -221 371t-369 -371q-76 -379 219 -379zM63 525q105 525 585 525t375 -525q-105 -524 -585 -524q-478 0 -375 524z" />
<glyph unicode="&#x43f;" d="M8 0l210 1050h165l-45 -324q199 324 492 324t225 -341l-142 -709h-185l142 712q37 184 -146 184q-209 0 -418 -333l-113 -563h-185z" />
<glyph unicode="&#x440;" horiz-adv-x="1148" d="M353 800q169 250 405 250q358 0 261 -484q-113 -566 -636 -566q-103 0 -188 9l-78 -389h-185l286 1430h165zM320 636l-90 -453q45 -29 175 -29q350 0 432 409q65 327 -142 327q-214 0 -375 -254z" />
<glyph unicode="&#x441;" horiz-adv-x="965" d="M764 130q-156 -130 -366 -130q-440 0 -333 535q103 515 603 515q150 0 274 -30l-30 -150q-124 30 -284 30q-305 0 -378 -365q-77 -385 188 -385q200 0 356 130z" />
<glyph unicode="&#x442;" horiz-adv-x="1805" d="M8 0l210 1050h165l-42 -312q184 312 462 312q250 0 189 -304q193 304 469 304q262 0 194 -338l-142 -712h-185l142 712q37 184 -111 184q-198 0 -393 -333l-113 -563h-185l142 712q37 184 -109 184q-206 0 -395 -333l-113 -563h-185z" />
<glyph unicode="&#x443;" horiz-adv-x="1050" d="M93 1050h201l133 -820l471 820h196l-652 -1081q-173 -286 -419 -357l-45 131q191 77 306 251z" />
<glyph unicode="&#x444;" horiz-adv-x="1811" d="M1016 800q169 250 405 250q358 0 261 -484q-113 -566 -636 -566q-103 0 -188 9l-78 -389h-185l126 630q-169 -250 -405 -250q-358 0 -261 484q113 566 636 566q103 0 188 -9l78 389h185zM844 867q-45 29 -175 29q-350 0 -432 -409q-65 -327 142 -327q214 0 375 254z M893 183q45 -29 175 -29q350 0 432 409q65 327 -142 327q-214 0 -375 -254z" />
<glyph unicode="&#x445;" horiz-adv-x="1020" d="M98 0h-215l483 525l-273 525h205l190 -400l360 400h215l-483 -525l273 -525h-205l-190 400z" />
<glyph unicode="&#x446;" horiz-adv-x="1290" d="M935 110l193 40q-53 -265 -206 -530h-185q138 190 184 420l-173 -40l45 324q-199 -324 -492 -324t-225 341l142 709h185l-142 -712q-37 -184 146 -184q209 0 418 333l113 563h185z" />
<glyph unicode="&#x447;" horiz-adv-x="1218" d="M1136 1050l-210 -1050h-185l83 414q-169 -114 -372 -114q-409 0 -327 411l68 339h185l-68 -342q-51 -254 198 -254q199 0 350 133l93 463h185z" />
<glyph unicode="&#x448;" horiz-adv-x="1805" d="M1723 1050l-210 -1050h-165l42 312q-184 -312 -462 -312q-250 0 -189 304q-193 -304 -469 -304q-262 0 -194 338l142 712h185l-142 -712q-37 -184 111 -184q198 0 393 333l113 563h185l-142 -712q-37 -184 109 -184q206 0 395 333l113 563h185z" />
<glyph unicode="&#x449;" horiz-adv-x="1890" d="M1535 110l193 40q-53 -265 -206 -530h-185q138 190 184 420l-173 -40l42 312q-184 -312 -462 -312q-250 0 -189 304q-193 -304 -469 -304q-262 0 -194 338l142 712h185l-142 -712q-37 -184 111 -184q198 0 393 333l113 563h185l-142 -712q-37 -184 109 -184 q206 0 395 333l113 563h185z" />
<glyph unicode="&#x44a;" horiz-adv-x="1352" d="M637 1050l-138 -691q-41 -206 187 -206q268 0 303 179q30 147 -152 147h-178l30 150h188q359 0 298 -306q-65 -323 -513 -323q-420 0 -348 359l108 541h-384l30 150h569z" />
<glyph unicode="&#x44b;" horiz-adv-x="1510" d="M1033 0l210 1050h185l-210 -1050h-185zM403 1050l-138 -691q-41 -206 207 -206t283 179q30 147 -152 147h-178l30 150h187q360 0 299 -306q-65 -323 -493 -323q-440 0 -368 359l138 691h185z" />
<glyph unicode="&#x44c;" horiz-adv-x="1168" d="M403 1050l-138 -691q-41 -206 207 -206t283 179q30 147 -152 147h-178l30 150h187q360 0 299 -306q-65 -323 -493 -323q-440 0 -368 359l138 691h185z" />
<glyph unicode="&#x44d;" horiz-adv-x="1010" d="M-6 180q124 -30 254 -30q319 0 422 311h-556l30 150h557q22 289 -303 289q-130 0 -266 -30l30 150q136 30 286 30q530 0 429 -505q-109 -545 -639 -545q-150 0 -274 30z" />
<glyph unicode="&#x44e;" horiz-adv-x="1702" d="M1031 140q262 0 340 389q76 381 -186 381q-273 0 -349 -381q-78 -389 195 -389zM8 0l210 1050h184l-88 -440h346q127 450 555 450q457 0 350 -537q-107 -533 -564 -533q-439 0 -372 470h-345l-92 -460h-184z" />
<glyph unicode="&#x44f;" horiz-adv-x="1145" d="M668 0l179 897h-358q-138 0 -161 -118q-28 -140 279 -205l-26 -131l-464 -443h-234l500 469q-295 97 -244 354q46 227 384 227h540l-210 -1050h-185z" />
<glyph unicode="&#x451;" horiz-adv-x="1085" d="M1003 751q-58 -289 -433 -289h-335q-62 -312 234 -312q229 0 394 130l-30 -150q-165 -130 -394 -130q-481 0 -374 537q103 513 586 513q412 0 352 -299zM266 616h335q190 0 218 138q29 148 -198 148q-280 0 -355 -286zM979 1430l-34 -170h-185l34 170h185zM609 1430 l-34 -170h-185l34 170h185z" />
<glyph unicode="&#x2013;" horiz-adv-x="1200" d="M1078 600l-30 -150h-1000l30 150h1000z" />
<glyph unicode="&#x2014;" horiz-adv-x="1700" d="M1578 600l-30 -150h-1500l30 150h1500z" />
<glyph unicode="&#x2018;" horiz-adv-x="410" d="M529 1430l-237 -435h-185l237 435h185z" />
<glyph unicode="&#x2019;" horiz-adv-x="435" d="M529 1430l-237 -435h-185l237 435h185z" />
<glyph unicode="&#x201a;" horiz-adv-x="410" d="M255 185l-237 -435h-185l237 435h185z" />
<glyph unicode="&#x201c;" horiz-adv-x="780" d="M899 1430l-237 -435h-185l237 435h185zM529 1430l-237 -435h-185l237 435h185z" />
<glyph unicode="&#x201d;" horiz-adv-x="780" d="M899 1430l-237 -435h-185l237 435h185zM529 1430l-237 -435h-185l237 435h185z" />
<glyph unicode="&#x201e;" horiz-adv-x="780" d="M625 185l-237 -435h-185l237 435h185zM255 185l-237 -435h-185l237 435h185z" />
<glyph unicode="&#x2020;" horiz-adv-x="1045" d="M759 1430l-76 -380h380l-30 -150h-380l-256 -1280h-185l256 1280h-380l30 150h380l76 380h185z" />
<glyph unicode="&#x2021;" horiz-adv-x="1045" d="M759 1430l-76 -380h380l-30 -150h-380l-150 -750h380l-30 -150h-380l-76 -380h-185l76 380h-380l30 150h380l150 750h-380l30 150h380l76 380h185z" />
<glyph unicode="&#x2022;" horiz-adv-x="630" d="M103 725q43 215 258 215t172 -215t-258 -215t-172 215z" />
<glyph unicode="&#x2026;" horiz-adv-x="1185" d="M180 185l-37 -185h-185l37 185h185zM580 185l-37 -185h-185l37 185h185zM980 185l-37 -185h-185l37 185h185z" />
<glyph unicode="&#x2030;" horiz-adv-x="2107" d="M163 0h-205l1303 1430h205zM443 1035q144 0 173 147q29 144 -115 144q-148 0 -177 -144q-29 -147 119 -147zM194 1180q52 260 330 260q274 0 222 -260q-52 -259 -326 -259q-278 0 -226 259zM1612 104q144 0 173 147q29 144 -115 144q-148 0 -177 -144q-29 -147 119 -147z M1363 249q52 260 330 260q274 0 222 -260q-52 -259 -326 -259q-278 0 -226 259zM927 104q144 0 173 147q29 144 -115 144q-148 0 -177 -144q-29 -147 119 -147zM678 249q52 260 330 260q274 0 222 -260q-52 -259 -326 -259q-278 0 -226 259z" />
<glyph unicode="&#x2039;" horiz-adv-x="610" d="M63 525l333 375h202l-333 -375l183 -375h-202z" />
<glyph unicode="&#x203a;" horiz-adv-x="610" d="M140 150h-202l333 375l-183 375h202l183 -375z" />
<glyph unicode="&#x2044;" horiz-adv-x="1270" d="M143 0h-185l1171 1430h185z" />
<glyph unicode="&#x20ac;" horiz-adv-x="1385" d="M1118 50q-197 -60 -412 -60q-750 0 -601 745q141 705 891 705q215 0 388 -60l-32 -160q-171 70 -366 70q-498 0 -655 -348h773l-30 -150h-793l-22 -110h793l-30 -150h-773q-1 -392 507 -392q195 0 394 70z" />
<glyph unicode="&#x2122;" horiz-adv-x="1606" d="M805 1430l-14 -71h-212l-120 -602h-87l120 602h-212l14 71h511zM760 757l134 673h110l136 -561l354 561h106l-134 -673h-78l108 543l-347 -543h-69l-135 543l-108 -543h-77z" />
<glyph unicode="&#x2202;" horiz-adv-x="1217" d="M441 1150l34 170q242 120 486 120q400 0 311 -446q-26 -129 -92 -294q-284 -710 -784 -710q-391 0 -329 311q12 59 40 129q174 437 720 437h234q32 82 45 148q55 275 -196 275q-257 0 -469 -140zM995 700h-233q-362 0 -470 -270q-20 -49 -28 -90q-40 -200 196 -200 q301 0 535 560z" />
<glyph unicode="&#x220f;" horiz-adv-x="1650" d="M1644 1430l-362 -1810h-175l332 1660h-990l-332 -1660h-185l362 1810h1350z" />
<glyph unicode="&#x2211;" horiz-adv-x="1350" d="M244 1430h1150l-30 -150h-960l416 -720l-698 -790h940l-30 -150h-1150l30 150l703 800l-401 710z" />
<glyph unicode="&#x2212;" horiz-adv-x="950" d="M828 600l-30 -150h-750l30 150h750z" />
<glyph unicode="&#x221a;" horiz-adv-x="1350" d="M143 1050h365l81 -806l810 1610h180l-972 -1861h-165l-99 907h-230z" />
<glyph unicode="&#x221e;" horiz-adv-x="1520" d="M63 525q59 295 379 295q200 0 306 -170q174 170 374 170q320 0 261 -295t-379 -295q-200 0 -306 170q-174 -170 -374 -170q-320 0 -261 295zM1218 525q29 145 -126 145q-130 0 -279 -145q91 -145 221 -145q155 0 184 145zM354 380q130 0 279 145q-91 145 -221 145 q-155 0 -184 -145t126 -145z" />
<glyph unicode="&#x222b;" horiz-adv-x="589" d="M749 1510q-222 0 -287 -326q-5 -26 -10 -54l-112 -750q-5 -30 -11 -59q-94 -471 -501 -471l30 150q222 0 287 326q5 26 10 54l112 750q5 30 11 59q94 471 501 471z" />
<glyph unicode="&#x2248;" horiz-adv-x="1050" d="M898 450l-30 -150q-121 -50 -230 -50t-205 50t-200 50q-103 0 -215 -50l30 150q122 50 230 50q109 0 205 -50t200 -50t215 50zM958 750l-30 -150q-121 -50 -230 -50t-205 50t-200 50q-103 0 -215 -50l30 150q122 50 230 50q109 0 205 -50t200 -50t215 50z" />
<glyph unicode="&#x2260;" horiz-adv-x="950" d="M189 300h-171l30 150h257l116 150h-343l30 150h429l231 300h150l-231 -300h171l-30 -150h-257l-116 -150h343l-30 -150h-429l-231 -300h-150z" />
<glyph unicode="&#x2264;" horiz-adv-x="950" d="M738 150l-30 -150h-750l30 150h750zM78 600l30 150l814 320l-32 -160l-631 -239l537 -231l-32 -160z" />
<glyph unicode="&#x2265;" horiz-adv-x="950" d="M738 150l-30 -150h-750l30 150h750zM14 280l32 160l629 231l-535 239l32 160l686 -320l-30 -150z" />
<glyph unicode="&#x25ca;" horiz-adv-x="1085" d="M594 1430h185l257 -715l-543 -715h-185l-257 715zM236 715l195 -565l420 565l-194 565z" />
<glyph unicode="&#xe012;" horiz-adv-x="1275" d="M529 140q322 0 400 389q76 381 -246 381q-333 0 -409 -381q-78 -389 255 -389zM78 523q107 537 635 537q517 0 410 -537q-107 -533 -624 -533q-528 0 -421 533z" />
<glyph unicode="&#xe013;" horiz-adv-x="854" d="M253 150l142 711h-250l20 99l453 90l-180 -900h239l-30 -150h-674l30 150h250z" />
<glyph unicode="&#xe014;" horiz-adv-x="1100" d="M-27 0l30 150q732 337 781 580q36 180 -234 180q-200 0 -417 -110l32 160q215 100 415 100q455 0 389 -330q-58 -290 -663 -580h597l-30 -150h-900z" />
<glyph unicode="&#xe015;" horiz-adv-x="1110" d="M156 990q212 60 392 60q485 0 409 -380q-37 -186 -243 -275q171 -85 133 -275q-80 -400 -565 -400q-180 0 -368 60l32 160q186 -70 366 -70q300 0 350 250q40 200 -212 200h-278l30 150h275q255 0 295 200q46 230 -254 230q-180 0 -394 -70z" />
<glyph unicode="&#xe016;" horiz-adv-x="1165" d="M759 -280h-185l62 309h-712l30 150l719 870h194l-720 -870h519l96 478h185l-96 -478l133 -76l-15 -74h-148z" />
<glyph unicode="&#xe017;" horiz-adv-x="1145" d="M273 1050h764l-30 -150h-607l-113 -402q121 22 220 22q500 0 422 -390q-84 -420 -644 -420q-180 0 -318 60l32 160q136 -70 326 -70q365 0 419 270q48 240 -267 240q-195 0 -400 -50z" />
<glyph unicode="&#xe018;" horiz-adv-x="1265" d="M82 520q101 506 829 853l70 -127q-377 -176 -572 -389q120 43 275 43q504 0 416 -440q-94 -470 -617 -470q-507 0 -401 530zM522 140q333 0 397 320q58 290 -274 290q-184 0 -324 -48q-36 -40 -63 -176q-77 -386 264 -386z" />
<glyph unicode="&#xe019;" horiz-adv-x="1060" d="M108 1050h930l-30 -150l-848 -1180h-211l868 1180h-739z" />
<glyph unicode="&#xe020;" horiz-adv-x="1250" d="M48 374q44 223 318 331q-193 95 -151 303q67 336 537 336t403 -336q-42 -208 -278 -303q235 -108 191 -331q-77 -384 -587 -384t-433 384zM970 1008q36 182 -257 182q-277 0 -313 -182q-48 -238 242 -238q280 0 328 238zM884 378q48 242 -285 242q-317 0 -365 -242 q-48 -238 282 -238q320 0 368 238z" />
<glyph unicode="&#xe021;" horiz-adv-x="1265" d="M1109 528q-101 -506 -829 -853l-70 127q377 176 572 389q-120 -43 -275 -43q-504 0 -416 440q94 470 617 470q507 0 401 -530zM669 908q-333 0 -397 -320q-58 -290 274 -290q184 0 324 48q36 40 63 176q77 386 -264 386z" />
<glyph unicode="&#xe029;" horiz-adv-x="1541" d="M28 0l182 910q108 540 773 540q233 0 549 -80l-26 -130l-523 -433q476 -5 400 -387q-84 -422 -578 -422q-176 0 -318 70l32 160q141 -80 318 -80q297 0 351 272q50 251 -295 252h-136l26 128l530 460q-176 40 -360 40q-480 0 -556 -380l-184 -920h-185z" />
<glyph unicode="&#xf000;" horiz-adv-x="1724" d="M1181 332v102l-255 13v540h127l51 -400h115l-38 511h-239l-80 -38l-79 38h-240l-38 -511h114l51 400h128v-540l-255 -13v-102h638zM534 1330l37 89l89 -37l53 80l81 -53l68 67l68 -67l81 53l53 -80l89 37l37 -89l94 19l20 -96h97v-96l94 -19l-19 -94l89 -37l-36 -90 l81 -52l-54 -82l68 -67l-69 -69l55 -82l-82 -52l37 -90l-89 -37l19 -94l-94 -19v-96h-97l-20 -96l-94 19l-37 -89l-89 37l-53 -80l-81 53l-68 -67l-68 67l-81 -53l-53 80l-89 -37l-37 89l-95 -19l-19 96h-97v96l-95 19l19 94l-90 39l37 88l-80 53l55 81l-69 69l69 67l-55 82 l82 54l-37 88l89 37l-19 94l94 19v96h97l19 96zM862 1347q-262 0 -447 -185t-185 -446q0 -263 185 -448t447 -185t447 185t185 448q0 261 -185 446t-447 185zM1270 1123.5q169 -169.5 169 -407.5q0 -240 -169 -409.5t-408 -169.5t-408 169.5t-169 409.5q0 238 169 407.5 t408 169.5t408 -169.5z" />
</font>
</defs>
</svg>
